<svg width="314" height="162" viewBox="0 0 314 162" fill="none" xmlns="http://www.w3.org/2000/svg">
<path d="M299 3.00001V0.500006H301.5V3.00001H299ZM299 162L284.566 137H313.434L299 162ZM0 0.500006H4.98333V5.50001H0V0.500006ZM14.95 0.500006H24.9167V5.50001H14.95V0.500006ZM34.8833 0.500006H44.85V5.50001H34.8833V0.500006ZM54.8167 0.500006H64.7833V5.50001H54.8167V0.500006ZM74.75 0.500006H84.7167V5.50001H74.75V0.500006ZM94.6833 0.500006H104.65V5.50001H94.6833V0.500006ZM114.617 0.500006H124.583V5.50001H114.617V0.500006ZM134.55 0.500006H144.517V5.50001H134.55V0.500006ZM154.483 0.500006H164.45V5.50001H154.483V0.500006ZM174.417 0.500006H184.383V5.50001H174.417V0.500006ZM194.35 0.500006H204.317V5.50001H194.35V0.500006ZM214.283 0.500006H224.25V5.50001H214.283V0.500006ZM234.217 0.500006H244.183V5.50001H234.217V0.500006ZM254.15 0.500006H264.117V5.50001H254.15V0.500006ZM274.083 0.500006H284.05V5.50001H274.083V0.500006ZM294.017 0.500006H299V5.50001H294.017V0.500006ZM301.5 3.00001V7.96876H296.5V3.00001H301.5ZM301.5 17.9063V27.8438H296.5V17.9063H301.5ZM301.5 37.7813V47.7188H296.5V37.7813H301.5ZM301.5 57.6563V67.5938H296.5V57.6563H301.5ZM301.5 77.5313V87.4688H296.5V77.5313H301.5ZM301.5 97.4063V107.344H296.5V97.4063H301.5ZM301.5 117.281V127.219H296.5V117.281H301.5ZM301.5 137.156V147.094H296.5V137.156H301.5Z" fill="#C7FF51"/>
</svg>
