<svg width="766" height="1223" viewBox="0 0 766 1223" fill="none" xmlns="http://www.w3.org/2000/svg">
<rect x="305" width="153.6" height="153.6" fill="#C7FF51"/>
<rect x="306" y="1069" width="153.6" height="153.6" fill="#C7FF51"/>
<rect width="153.6" height="153.6" fill="#C7FF51"/>
<rect x="612" width="153.6" height="153.6" fill="#C7FF51"/>
<rect x="612" y="1069" width="153.6" height="153.6" fill="#C7FF51"/>
<rect y="1069" width="153.6" height="153.6" fill="#C7FF51"/>
<rect x="153" y="153" width="153.6" height="153.6" fill="#C7FF51"/>
<rect x="305.6" y="152.6" width="153.6" height="153.6" fill="#C7FF51"/>
<rect x="458.199" y="153" width="153.6" height="153.6" fill="#C7FF51"/>
<rect x="153" y="916" width="153.6" height="153.6" fill="#C7FF51"/>
<rect x="305.6" y="916" width="153.6" height="153.6" fill="#C7FF51"/>
<rect x="458.199" y="916" width="153.6" height="153.6" fill="#C7FF51"/>
<rect x="305.199" y="305.6" width="153.6" height="153.6" fill="#C7FF51"/>
<rect x="305.199" y="458.2" width="153.6" height="153.6" fill="#C7FF51"/>
<rect x="152.6" y="610.8" width="153.6" height="153.6" fill="#C7FF51"/>
<rect x="305.199" y="610.8" width="153.6" height="153.6" fill="#C7FF51"/>
<rect x="152.6" y="763.4" width="153.6" height="153.6" fill="#C7FF51"/>
<rect y="458.2" width="153.6" height="153.6" fill="#C7FF51"/>
<rect y="610.8" width="153.6" height="153.6" fill="#C7FF51"/>
<rect y="763.4" width="153.6" height="153.6" fill="#C7FF51"/>
<rect x="305.199" y="763.4" width="153.6" height="153.6" fill="#C7FF51"/>
<rect x="152.6" y="458.2" width="153.6" height="153.6" fill="#C7FF51"/>
<rect x="152.6" y="305.6" width="153.6" height="153.6" fill="#C7FF51"/>
<rect x="610.398" y="305.6" width="153.6" height="153.6" fill="#C7FF51"/>
<rect x="610.398" y="458.2" width="153.6" height="153.6" fill="#C7FF51"/>
<rect x="610.398" y="610.8" width="153.6" height="153.6" fill="#C7FF51"/>
<rect x="610.398" y="763.4" width="153.6" height="153.6" fill="#C7FF51"/>
<rect y="305.6" width="153.6" height="153.6" fill="#C7FF51"/>
<rect x="457.799" y="305.6" width="153.6" height="153.6" fill="#C7FF51"/>
<rect x="457.799" y="458.2" width="153.6" height="153.6" fill="#C7FF51"/>
<rect x="457.799" y="610.8" width="153.6" height="153.6" fill="#C7FF51"/>
<rect x="457.799" y="763.4" width="153.6" height="153.6" fill="#C7FF51"/>
</svg>
