<svg width="1416" height="354" viewBox="0 0 1416 354" fill="none" xmlns="http://www.w3.org/2000/svg">
<rect x="844.6" y="218.2" width="81.6" height="81.6" fill="#FF1393"/>
<rect x="763" y="136.6" width="81.6" height="81.6" fill="#FF1393"/>
<rect x="926.2" y="136.6" width="81.6" height="81.6" fill="#FF1393"/>
<rect width="81.6" height="81.6" transform="matrix(1 0 0 -1 844.6 136.6)" fill="#FF1393"/>
<rect x="473.3" y="177.1" width="81.6" height="81.6" transform="rotate(45 473.3 177.1)" fill="#FF1393"/>
<rect x="473.3" y="61.6997" width="81.6" height="81.6" transform="rotate(45 473.3 61.6997)" fill="#FF1393"/>
<rect x="588.7" y="177.1" width="81.6" height="81.6" transform="rotate(45 588.7 177.1)" fill="#FF1393"/>
<rect width="81.6" height="81.6" transform="matrix(0.707107 0.707107 0.707107 -0.707107 531 119.399)" fill="#FF1393"/>
<rect x="1181.3" y="177.1" width="81.6" height="81.6" transform="rotate(45 1181.3 177.1)" fill="#FF1393"/>
<rect x="1181.3" y="61.6997" width="81.6" height="81.6" transform="rotate(45 1181.3 61.6997)" fill="#FF1393"/>
<rect x="1296.7" y="177.1" width="81.6" height="81.6" transform="rotate(45 1296.7 177.1)" fill="#FF1393"/>
<rect width="81.6" height="81.6" transform="matrix(0.707107 0.707107 0.707107 -0.707107 1239 119.399)" fill="#FF1393"/>
<rect x="136.8" y="136.6" width="81.6" height="81.6" transform="rotate(90 136.8 136.6)" fill="#FF1393"/>
<rect x="218.4" y="55" width="81.6" height="81.6" transform="rotate(90 218.4 55)" fill="#FF1393"/>
<rect x="218.4" y="218.2" width="81.6" height="81.6" transform="rotate(90 218.4 218.2)" fill="#FF1393"/>
<rect width="81.6" height="81.6" transform="matrix(-4.37114e-08 1 1 4.37114e-08 218.4 136.6)" fill="#FF1393"/>
</svg>
