<svg width="765" height="612" viewBox="0 0 765 612" fill="none" xmlns="http://www.w3.org/2000/svg">
<rect x="305.6" width="153.6" height="153.6" fill="#C7FF51"/>
<rect x="305.6" y="152.6" width="153.6" height="153.6" fill="#C7FF51"/>
<rect x="153" y="305.2" width="153.6" height="153.6" fill="#C7FF51"/>
<rect x="305.6" y="305.2" width="153.6" height="153.6" fill="#C7FF51"/>
<rect x="153" y="457.8" width="153.6" height="153.6" fill="#C7FF51"/>
<rect x="0.400391" y="152.6" width="153.6" height="153.6" fill="#C7FF51"/>
<rect x="0.400391" y="305.2" width="153.6" height="153.6" fill="#C7FF51"/>
<rect x="0.400391" y="457.8" width="153.6" height="153.6" fill="#C7FF51"/>
<rect x="305.6" y="457.8" width="153.6" height="153.6" fill="#C7FF51"/>
<rect x="153" y="152.6" width="153.6" height="153.6" fill="#C7FF51"/>
<rect x="153" width="153.6" height="153.6" fill="#C7FF51"/>
<rect x="610.799" width="153.6" height="153.6" fill="#C7FF51"/>
<rect x="610.799" y="152.6" width="153.6" height="153.6" fill="#C7FF51"/>
<rect x="610.799" y="305.2" width="153.6" height="153.6" fill="#C7FF51"/>
<rect x="610.799" y="457.8" width="153.6" height="153.6" fill="#C7FF51"/>
<rect x="0.400391" width="153.6" height="153.6" fill="#C7FF51"/>
<rect x="458.199" width="153.6" height="153.6" fill="#C7FF51"/>
<rect x="458.199" y="152.6" width="153.6" height="153.6" fill="#C7FF51"/>
<rect x="458.199" y="305.2" width="153.6" height="153.6" fill="#C7FF51"/>
<rect x="458.199" y="457.8" width="153.6" height="153.6" fill="#C7FF51"/>
</svg>
