<svg width="3182" height="354" viewBox="0 0 3182 354" fill="none" xmlns="http://www.w3.org/2000/svg">
<rect x="3025.6" y="101" width="38.4" height="38.4" fill="#C7FF51"/>
<rect x="3025.6" y="221" width="38.4" height="38.4" fill="#C7FF51"/>
<rect x="2945" y="139.4" width="81.6" height="81.6" fill="#C7FF51"/>
<rect x="193.6" y="101" width="38.4" height="38.4" fill="#C7FF51"/>
<rect x="193.6" y="221" width="38.4" height="38.4" fill="#C7FF51"/>
<rect x="113" y="139.4" width="81.6" height="81.6" fill="#C7FF51"/>
<rect x="2671.6" y="117" width="38.4" height="38.4" fill="#C7FF51"/>
<rect x="2671.6" y="205.4" width="38.4" height="38.4" fill="#C7FF51"/>
<rect x="2591" y="139.4" width="81.6" height="81.6" fill="#C7FF51"/>
<rect x="547.6" y="117" width="38.4" height="38.4" fill="#C7FF51"/>
<rect x="547.6" y="205.4" width="38.4" height="38.4" fill="#C7FF51"/>
<rect x="467" y="139.4" width="81.6" height="81.6" fill="#C7FF51"/>
<rect x="2317.6" y="132" width="38.4" height="38.4" fill="#C7FF51"/>
<rect x="2317.6" y="190.4" width="38.4" height="38.4" fill="#C7FF51"/>
<rect x="2237" y="139.4" width="81.6" height="81.6" fill="#C7FF51"/>
<rect x="901.6" y="132" width="38.4" height="38.4" fill="#C7FF51"/>
<rect x="901.6" y="190.4" width="38.4" height="38.4" fill="#C7FF51"/>
<rect x="821" y="139.4" width="81.6" height="81.6" fill="#C7FF51"/>
<rect x="1963.6" y="141.6" width="38.4" height="38.4" fill="#C7FF51"/>
<rect x="1963.6" y="180" width="38.4" height="38.4" fill="#C7FF51"/>
<rect x="1883" y="139" width="81.6" height="81.6" fill="#C7FF51"/>
<rect x="1255.6" y="141.6" width="38.4" height="38.4" fill="#C7FF51"/>
<rect x="1255.6" y="180" width="38.4" height="38.4" fill="#C7FF51"/>
<rect x="1175" y="139" width="81.6" height="81.6" fill="#C7FF51"/>
<rect x="1609.6" y="161" width="38.4" height="38.4" fill="#C7FF51"/>
<rect x="1529" y="139" width="81.6" height="81.6" fill="#C7FF51"/>
</svg>
