<svg width="3182" height="354" viewBox="0 0 3182 354" fill="none" xmlns="http://www.w3.org/2000/svg">
<rect width="38.4" height="38.4" transform="matrix(-1 0 0 1 156.4 101)" fill="#C7FF51"/>
<rect width="38.4" height="38.4" transform="matrix(-1 0 0 1 156.4 221)" fill="#C7FF51"/>
<rect width="81.6" height="81.6" transform="matrix(-1 0 0 1 237 139.4)" fill="#C7FF51"/>
<rect width="38.4" height="38.4" transform="matrix(-1 0 0 1 2988.4 101)" fill="#C7FF51"/>
<rect width="38.4" height="38.4" transform="matrix(-1 0 0 1 2988.4 221)" fill="#C7FF51"/>
<rect width="81.6" height="81.6" transform="matrix(-1 0 0 1 3069 139.4)" fill="#C7FF51"/>
<rect width="38.4" height="38.4" transform="matrix(-1 0 0 1 510.4 117)" fill="#C7FF51"/>
<rect width="38.4" height="38.4" transform="matrix(-1 0 0 1 510.4 205.4)" fill="#C7FF51"/>
<rect width="81.6" height="81.6" transform="matrix(-1 0 0 1 591 139.4)" fill="#C7FF51"/>
<rect width="38.4" height="38.4" transform="matrix(-1 0 0 1 2634.4 117)" fill="#C7FF51"/>
<rect width="38.4" height="38.4" transform="matrix(-1 0 0 1 2634.4 205.4)" fill="#C7FF51"/>
<rect width="81.6" height="81.6" transform="matrix(-1 0 0 1 2715 139.4)" fill="#C7FF51"/>
<rect width="38.4" height="38.4" transform="matrix(-1 0 0 1 864.4 132)" fill="#C7FF51"/>
<rect width="38.4" height="38.4" transform="matrix(-1 0 0 1 864.4 190.4)" fill="#C7FF51"/>
<rect width="81.6" height="81.6" transform="matrix(-1 0 0 1 945 139.4)" fill="#C7FF51"/>
<rect width="38.4" height="38.4" transform="matrix(-1 0 0 1 2280.4 132)" fill="#C7FF51"/>
<rect width="38.4" height="38.4" transform="matrix(-1 0 0 1 2280.4 190.4)" fill="#C7FF51"/>
<rect width="81.6" height="81.6" transform="matrix(-1 0 0 1 2361 139.4)" fill="#C7FF51"/>
<rect width="38.4" height="38.4" transform="matrix(-1 0 0 1 1218.4 141.6)" fill="#C7FF51"/>
<rect width="38.4" height="38.4" transform="matrix(-1 0 0 1 1218.4 180)" fill="#C7FF51"/>
<rect width="81.6" height="81.6" transform="matrix(-1 0 0 1 1299 139)" fill="#C7FF51"/>
<rect width="38.4" height="38.4" transform="matrix(-1 0 0 1 1926.4 141.6)" fill="#C7FF51"/>
<rect width="38.4" height="38.4" transform="matrix(-1 0 0 1 1926.4 180)" fill="#C7FF51"/>
<rect width="81.6" height="81.6" transform="matrix(-1 0 0 1 2007 139)" fill="#C7FF51"/>
<rect width="38.4" height="38.4" transform="matrix(-1 0 0 1 1572.4 161)" fill="#C7FF51"/>
<rect width="81.6" height="81.6" transform="matrix(-1 0 0 1 1653 139)" fill="#C7FF51"/>
</svg>
