<svg width="1040" height="260" viewBox="0 0 1040 260" fill="none" xmlns="http://www.w3.org/2000/svg">
<rect width="81.6" height="81.6" transform="matrix(-1 0 0 1 170.6 94)" fill="#FF1393"/>
<rect width="38.4" height="38.4" transform="matrix(-1 0 0 1 89.0004 55.6001)" fill="#FF1393"/>
<rect width="81.6" height="81.6" transform="matrix(-1 0 0 1 430.6 94)" fill="#FF1393"/>
<rect width="38.4" height="38.4" transform="matrix(-1 0 0 1 468.4 56)" fill="#FF1393"/>
<rect width="81.6" height="81.6" transform="matrix(-1 0 0 1 690.6 94)" fill="#FF1393"/>
<rect width="38.4" height="38.4" transform="matrix(-1 0 0 1 728.4 175)" fill="#FF1393"/>
<rect width="81.6" height="81.6" transform="matrix(-1 0 0 1 950.6 94)" fill="#FF1393"/>
<rect width="38.4" height="38.4" transform="matrix(-1 0 0 1 869.4 175)" fill="#FF1393"/>
</svg>
