<svg width="8640" height="781" viewBox="0 0 8640 781" fill="none" xmlns="http://www.w3.org/2000/svg">
<g clip-path="url(#clip0_162_1762)">
<rect x="1080" y="602" width="114" height="1080" transform="rotate(90 1080 602)" fill="#C7FF51"/>
<rect x="1080" y="423" width="114" height="1080" transform="rotate(90 1080 423)" fill="#C7FF51"/>
<rect x="1080" y="244" width="114" height="1080" transform="rotate(90 1080 244)" fill="#C7FF51"/>
<rect x="1080" y="65" width="114" height="1080" transform="rotate(90 1080 65)" fill="#C7FF51"/>
<rect x="50" width="105" height="781" fill="#FB95D2"/>
<rect x="225" width="105" height="781" fill="#FB95D2"/>
<rect x="400" width="105" height="781" fill="#FB95D2"/>
<rect x="575" width="105" height="781" fill="#FB95D2"/>
<rect x="750" y="-1" width="105" height="781" fill="#FB95D2"/>
<rect x="925" y="-1" width="105" height="781" fill="#FB95D2"/>
<rect x="505" y="65" width="245" height="114" fill="#040EF0" fill-opacity="0.988542"/>
<rect x="330" y="244" width="245" height="114" fill="#040EF0" fill-opacity="0.988542"/>
<rect x="680" y="244" width="245" height="114" fill="#040EF0" fill-opacity="0.988542"/>
<rect x="505" y="423" width="245" height="114" fill="#040EF0" fill-opacity="0.988542"/>
<rect x="-20" y="602" width="245" height="114" fill="#040EF0" fill-opacity="0.988542"/>
<rect x="-195" y="423" width="245" height="114" fill="#040EF0" fill-opacity="0.988542"/>
<rect x="1030" y="602" width="245" height="114" fill="#040EF0" fill-opacity="0.988542"/>
<rect x="330" y="602" width="245" height="114" fill="#C7FF51"/>
<rect x="155" y="423" width="245" height="114" fill="#C7FF51"/>
<rect x="855" y="423" width="245" height="114" fill="#C7FF51"/>
<rect x="855" y="65" width="245" height="114" fill="#C7FF51"/>
<rect x="680" y="602" width="245" height="114" fill="#C7FF51"/>
<rect x="155" y="65" width="245" height="114" fill="#C7FF51"/>
<rect x="-20" y="244" width="245" height="114" fill="#C7FF51"/>
</g>
<g clip-path="url(#clip1_162_1762)">
<rect x="2160" y="602" width="114" height="1080" transform="rotate(90 2160 602)" fill="#C7FF51"/>
<rect x="2160" y="423" width="114" height="1080" transform="rotate(90 2160 423)" fill="#C7FF51"/>
<rect x="2160" y="244" width="114" height="1080" transform="rotate(90 2160 244)" fill="#C7FF51"/>
<rect x="2160" y="65" width="114" height="1080" transform="rotate(90 2160 65)" fill="#C7FF51"/>
<rect x="1130" width="105" height="781" fill="#FB95D2"/>
<rect x="1305" width="105" height="781" fill="#FB95D2"/>
<rect x="1480" width="105" height="781" fill="#FB95D2"/>
<rect x="1655" width="105" height="781" fill="#FB95D2"/>
<rect x="1830" y="-1" width="105" height="781" fill="#FB95D2"/>
<rect x="2005" y="-1" width="105" height="781" fill="#FB95D2"/>
<rect x="1410" y="65" width="245" height="114" fill="#040EF0" fill-opacity="0.988542"/>
<rect x="1235" y="244" width="245" height="114" fill="#040EF0" fill-opacity="0.988542"/>
<rect x="1585" y="244" width="245" height="114" fill="#040EF0" fill-opacity="0.988542"/>
<rect x="1410" y="423" width="245" height="114" fill="#040EF0" fill-opacity="0.988542"/>
<rect x="885" y="602" width="245" height="114" fill="#040EF0" fill-opacity="0.988542"/>
<rect x="1935" y="602" width="245" height="114" fill="#040EF0" fill-opacity="0.988542"/>
<rect x="1235" y="602" width="245" height="114" fill="#C7FF51"/>
<rect x="1060" y="423" width="245" height="114" fill="#C7FF51"/>
<rect x="1935" y="244" width="245" height="114" fill="#C7FF51"/>
<rect x="1760" y="423" width="245" height="114" fill="#C7FF51"/>
<rect x="1760" y="65" width="245" height="114" fill="#C7FF51"/>
<rect x="1585" y="602" width="245" height="114" fill="#C7FF51"/>
<rect x="1060" y="65" width="245" height="114" fill="#C7FF51"/>
<rect x="885" y="244" width="245" height="114" fill="#C7FF51"/>
<rect x="2110" y="423" width="245" height="114" fill="#040EF0" fill-opacity="0.988542"/>
</g>
<g clip-path="url(#clip2_162_1762)">
<rect x="3240" y="602" width="114" height="1080" transform="rotate(90 3240 602)" fill="#C7FF51"/>
<rect x="3240" y="423" width="114" height="1080" transform="rotate(90 3240 423)" fill="#C7FF51"/>
<rect x="3240" y="244" width="114" height="1080" transform="rotate(90 3240 244)" fill="#C7FF51"/>
<rect x="3240" y="65" width="114" height="1080" transform="rotate(90 3240 65)" fill="#C7FF51"/>
<rect x="2210" width="105" height="781" fill="#FB95D2"/>
<rect x="2385" width="105" height="781" fill="#FB95D2"/>
<rect x="2560" width="105" height="781" fill="#FB95D2"/>
<rect x="2735" width="105" height="781" fill="#FB95D2"/>
<rect x="2910" y="-1" width="105" height="781" fill="#FB95D2"/>
<rect x="3085" y="-1" width="105" height="781" fill="#FB95D2"/>
<rect x="2315" y="65" width="245" height="114" fill="#040EF0" fill-opacity="0.988542"/>
<rect x="2140" y="244" width="245" height="114" fill="#040EF0" fill-opacity="0.988542"/>
<rect x="2490" y="244" width="245" height="114" fill="#040EF0" fill-opacity="0.988542"/>
<rect x="2315" y="423" width="245" height="114" fill="#040EF0" fill-opacity="0.988542"/>
<rect x="2840" y="602" width="245" height="114" fill="#040EF0" fill-opacity="0.988542"/>
<rect x="2140" y="602" width="245" height="114" fill="#C7FF51"/>
<rect x="1965" y="423" width="245" height="114" fill="#C7FF51"/>
<rect x="2840" y="244" width="245" height="114" fill="#C7FF51"/>
<rect x="3015" y="65" width="245" height="114" fill="#C7FF51"/>
<rect x="2665" y="423" width="245" height="114" fill="#C7FF51"/>
<rect x="2665" y="65" width="245" height="114" fill="#C7FF51"/>
<rect x="2490" y="602" width="245" height="114" fill="#C7FF51"/>
<rect x="1965" y="65" width="245" height="114" fill="#C7FF51"/>
<rect x="3015" y="423" width="245" height="114" fill="#040EF0" fill-opacity="0.988542"/>
<rect x="3190" y="602" width="245" height="114" fill="#040EF0" fill-opacity="0.988542"/>
</g>
<g clip-path="url(#clip3_162_1762)">
<rect x="4320" y="602" width="114" height="1080" transform="rotate(90 4320 602)" fill="#C7FF51"/>
<rect x="4320" y="423" width="114" height="1080" transform="rotate(90 4320 423)" fill="#C7FF51"/>
<rect x="4320" y="244" width="114" height="1080" transform="rotate(90 4320 244)" fill="#C7FF51"/>
<rect x="4320" y="65" width="114" height="1080" transform="rotate(90 4320 65)" fill="#C7FF51"/>
<rect x="3290" width="105" height="781" fill="#FB95D2"/>
<rect x="3465" width="105" height="781" fill="#FB95D2"/>
<rect x="3640" width="105" height="781" fill="#FB95D2"/>
<rect x="3815" width="105" height="781" fill="#FB95D2"/>
<rect x="3990" y="-1" width="105" height="781" fill="#FB95D2"/>
<rect x="4165" y="-1" width="105" height="781" fill="#FB95D2"/>
<rect x="3220" y="65" width="245" height="114" fill="#040EF0" fill-opacity="0.988542"/>
<rect x="3045" y="244" width="245" height="114" fill="#040EF0" fill-opacity="0.988542"/>
<rect x="3395" y="244" width="245" height="114" fill="#040EF0" fill-opacity="0.988542"/>
<rect x="3220" y="423" width="245" height="114" fill="#040EF0" fill-opacity="0.988542"/>
<rect x="3745" y="602" width="245" height="114" fill="#040EF0" fill-opacity="0.988542"/>
<rect x="3045" y="602" width="245" height="114" fill="#C7FF51"/>
<rect x="3745" y="244" width="245" height="114" fill="#C7FF51"/>
<rect x="3920" y="65" width="245" height="114" fill="#C7FF51"/>
<rect x="4095" y="244" width="245" height="114" fill="#C7FF51"/>
<rect x="3570" y="423" width="245" height="114" fill="#C7FF51"/>
<rect x="3570" y="65" width="245" height="114" fill="#C7FF51"/>
<rect x="3395" y="602" width="245" height="114" fill="#C7FF51"/>
<rect x="3920" y="423" width="245" height="114" fill="#040EF0" fill-opacity="0.988542"/>
<rect x="4095" y="602" width="245" height="114" fill="#040EF0" fill-opacity="0.988542"/>
</g>
<g clip-path="url(#clip4_162_1762)">
<rect x="5400" y="602" width="114" height="1080" transform="rotate(90 5400 602)" fill="#C7FF51"/>
<rect x="5400" y="423" width="114" height="1080" transform="rotate(90 5400 423)" fill="#C7FF51"/>
<rect x="5400" y="244" width="114" height="1080" transform="rotate(90 5400 244)" fill="#C7FF51"/>
<rect x="5400" y="65" width="114" height="1080" transform="rotate(90 5400 65)" fill="#C7FF51"/>
<rect x="4370" width="105" height="781" fill="#FB95D2"/>
<rect x="4545" width="105" height="781" fill="#FB95D2"/>
<rect x="4720" width="105" height="781" fill="#FB95D2"/>
<rect x="4895" width="105" height="781" fill="#FB95D2"/>
<rect x="5070" y="-1" width="105" height="781" fill="#FB95D2"/>
<rect x="5245" y="-1" width="105" height="781" fill="#FB95D2"/>
<rect x="4125" y="65" width="245" height="114" fill="#040EF0" fill-opacity="0.988542"/>
<rect x="4300" y="244" width="245" height="114" fill="#040EF0" fill-opacity="0.988542"/>
<rect x="4125" y="423" width="245" height="114" fill="#040EF0" fill-opacity="0.988542"/>
<rect x="4650" y="602" width="245" height="114" fill="#040EF0" fill-opacity="0.988542"/>
<rect x="4650" y="244" width="245" height="114" fill="#C7FF51"/>
<rect x="4825" y="65" width="245" height="114" fill="#C7FF51"/>
<rect x="5000" y="244" width="245" height="114" fill="#C7FF51"/>
<rect x="5175" y="423" width="245" height="114" fill="#C7FF51"/>
<rect x="5175" y="65" width="245" height="114" fill="#C7FF51"/>
<rect x="4475" y="423" width="245" height="114" fill="#C7FF51"/>
<rect x="4475" y="65" width="245" height="114" fill="#C7FF51"/>
<rect x="4300" y="602" width="245" height="114" fill="#C7FF51"/>
<rect x="4825" y="423" width="245" height="114" fill="#040EF0" fill-opacity="0.988542"/>
<rect x="5000" y="602" width="245" height="114" fill="#040EF0" fill-opacity="0.988542"/>
<rect x="5350" y="244" width="245" height="114" fill="#040EF0" fill-opacity="0.988542"/>
</g>
<g clip-path="url(#clip5_162_1762)">
<rect x="6480" y="602" width="114" height="1080" transform="rotate(90 6480 602)" fill="#C7FF51"/>
<rect x="6480" y="423" width="114" height="1080" transform="rotate(90 6480 423)" fill="#C7FF51"/>
<rect x="6480" y="244" width="114" height="1080" transform="rotate(90 6480 244)" fill="#C7FF51"/>
<rect x="6480" y="65" width="114" height="1080" transform="rotate(90 6480 65)" fill="#C7FF51"/>
<rect x="5450" width="105" height="781" fill="#FB95D2"/>
<rect x="5625" width="105" height="781" fill="#FB95D2"/>
<rect x="5800" width="105" height="781" fill="#FB95D2"/>
<rect x="5975" width="105" height="781" fill="#FB95D2"/>
<rect x="6150" y="-1" width="105" height="781" fill="#FB95D2"/>
<rect x="6325" y="-1" width="105" height="781" fill="#FB95D2"/>
<rect x="5205" y="244" width="245" height="114" fill="#040EF0" fill-opacity="0.988542"/>
<rect x="5555" y="602" width="245" height="114" fill="#040EF0" fill-opacity="0.988542"/>
<rect x="5555" y="244" width="245" height="114" fill="#C7FF51"/>
<rect x="5730" y="65" width="245" height="114" fill="#C7FF51"/>
<rect x="5905" y="244" width="245" height="114" fill="#C7FF51"/>
<rect x="6080" y="423" width="245" height="114" fill="#C7FF51"/>
<rect x="6255" y="602" width="245" height="114" fill="#C7FF51"/>
<rect x="6080" y="65" width="245" height="114" fill="#C7FF51"/>
<rect x="5380" y="423" width="245" height="114" fill="#C7FF51"/>
<rect x="5380" y="65" width="245" height="114" fill="#C7FF51"/>
<rect x="5205" y="602" width="245" height="114" fill="#C7FF51"/>
<rect x="5730" y="423" width="245" height="114" fill="#040EF0" fill-opacity="0.988542"/>
<rect x="5905" y="602" width="245" height="114" fill="#040EF0" fill-opacity="0.988542"/>
<rect x="6255" y="244" width="245" height="114" fill="#040EF0" fill-opacity="0.988542"/>
<rect x="6430" y="65" width="245" height="114" fill="#040EF0" fill-opacity="0.988542"/>
<rect x="6430" y="423" width="245" height="114" fill="#040EF0" fill-opacity="0.988542"/>
</g>
<g clip-path="url(#clip6_162_1762)">
<rect x="7560" y="602" width="114" height="1080" transform="rotate(90 7560 602)" fill="#C7FF51"/>
<rect x="7560" y="423" width="114" height="1080" transform="rotate(90 7560 423)" fill="#C7FF51"/>
<rect x="7560" y="244" width="114" height="1080" transform="rotate(90 7560 244)" fill="#C7FF51"/>
<rect x="7560" y="65" width="114" height="1080" transform="rotate(90 7560 65)" fill="#C7FF51"/>
<rect x="6530" width="105" height="781" fill="#FB95D2"/>
<rect x="6705" width="105" height="781" fill="#FB95D2"/>
<rect x="6880" width="105" height="781" fill="#FB95D2"/>
<rect x="7055" width="105" height="781" fill="#FB95D2"/>
<rect x="7230" y="-1" width="105" height="781" fill="#FB95D2"/>
<rect x="7405" y="-1" width="105" height="781" fill="#FB95D2"/>
<rect x="6460" y="602" width="245" height="114" fill="#040EF0" fill-opacity="0.988542"/>
<rect x="6460" y="244" width="245" height="114" fill="#C7FF51"/>
<rect x="6635" y="65" width="245" height="114" fill="#C7FF51"/>
<rect x="6810" y="244" width="245" height="114" fill="#C7FF51"/>
<rect x="6985" y="423" width="245" height="114" fill="#C7FF51"/>
<rect x="7160" y="602" width="245" height="114" fill="#C7FF51"/>
<rect x="6985" y="65" width="245" height="114" fill="#C7FF51"/>
<rect x="6285" y="423" width="245" height="114" fill="#C7FF51"/>
<rect x="6285" y="65" width="245" height="114" fill="#C7FF51"/>
<rect x="6635" y="423" width="245" height="114" fill="#040EF0" fill-opacity="0.988542"/>
<rect x="6810" y="602" width="245" height="114" fill="#040EF0" fill-opacity="0.988542"/>
<rect x="7160" y="244" width="245" height="114" fill="#040EF0" fill-opacity="0.988542"/>
<rect x="7335" y="65" width="245" height="114" fill="#040EF0" fill-opacity="0.988542"/>
<rect x="7335" y="423" width="245" height="114" fill="#040EF0" fill-opacity="0.988542"/>
<rect x="7510" y="244" width="245" height="114" fill="#040EF0" fill-opacity="0.988542"/>
</g>
<g clip-path="url(#clip7_162_1762)">
<rect x="8640" y="602" width="114" height="1080" transform="rotate(90 8640 602)" fill="#C7FF51"/>
<rect x="8640" y="423" width="114" height="1080" transform="rotate(90 8640 423)" fill="#C7FF51"/>
<rect x="8640" y="244" width="114" height="1080" transform="rotate(90 8640 244)" fill="#C7FF51"/>
<rect x="8640" y="65" width="114" height="1080" transform="rotate(90 8640 65)" fill="#C7FF51"/>
<rect x="7610" width="105" height="781" fill="#FB95D2"/>
<rect x="7785" width="105" height="781" fill="#FB95D2"/>
<rect x="7960" width="105" height="781" fill="#FB95D2"/>
<rect x="8135" width="105" height="781" fill="#FB95D2"/>
<rect x="8310" y="-1" width="105" height="781" fill="#FB95D2"/>
<rect x="8485" y="-1" width="105" height="781" fill="#FB95D2"/>
<rect x="7365" y="602" width="245" height="114" fill="#040EF0" fill-opacity="0.988542"/>
<rect x="7365" y="244" width="245" height="114" fill="#C7FF51"/>
<rect x="7540" y="65" width="245" height="114" fill="#C7FF51"/>
<rect x="7715" y="244" width="245" height="114" fill="#C7FF51"/>
<rect x="7890" y="423" width="245" height="114" fill="#C7FF51"/>
<rect x="8065" y="602" width="245" height="114" fill="#C7FF51"/>
<rect x="8415" y="602" width="245" height="114" fill="#C7FF51"/>
<rect x="7890" y="65" width="245" height="114" fill="#C7FF51"/>
<rect x="7540" y="423" width="245" height="114" fill="#040EF0" fill-opacity="0.988542"/>
<rect x="7715" y="602" width="245" height="114" fill="#040EF0" fill-opacity="0.988542"/>
<rect x="8065" y="244" width="245" height="114" fill="#040EF0" fill-opacity="0.988542"/>
<rect x="8240" y="65" width="245" height="114" fill="#040EF0" fill-opacity="0.988542"/>
<rect x="8240" y="423" width="245" height="114" fill="#040EF0" fill-opacity="0.988542"/>
<rect x="8415" y="244" width="245" height="114" fill="#040EF0" fill-opacity="0.988542"/>
</g>
<defs>
<clipPath id="clip0_162_1762">
<rect width="780.546" height="1080" fill="white" transform="translate(1080) rotate(90)"/>
</clipPath>
<clipPath id="clip1_162_1762">
<rect width="780.546" height="1080" fill="white" transform="translate(2160) rotate(90)"/>
</clipPath>
<clipPath id="clip2_162_1762">
<rect width="780.546" height="1080" fill="white" transform="translate(3240) rotate(90)"/>
</clipPath>
<clipPath id="clip3_162_1762">
<rect width="780.546" height="1080" fill="white" transform="translate(4320) rotate(90)"/>
</clipPath>
<clipPath id="clip4_162_1762">
<rect width="780.546" height="1080" fill="white" transform="translate(5400) rotate(90)"/>
</clipPath>
<clipPath id="clip5_162_1762">
<rect width="780.546" height="1080" fill="white" transform="translate(6480) rotate(90)"/>
</clipPath>
<clipPath id="clip6_162_1762">
<rect width="780.546" height="1080" fill="white" transform="translate(7560) rotate(90)"/>
</clipPath>
<clipPath id="clip7_162_1762">
<rect width="780.546" height="1080" fill="white" transform="translate(8640) rotate(90)"/>
</clipPath>
</defs>
</svg>
