<svg width="995" height="131" viewBox="0 0 995 131" fill="none" xmlns="http://www.w3.org/2000/svg">
<rect x="114.631" y="81.8772" width="33.8906" height="33.8906" fill="#0F148E"/>
<rect x="297" y="79" width="33.8906" height="33.8906" fill="#0F148E"/>
<rect x="467.891" y="78.8906" width="33.8906" height="33.8906" transform="rotate(-180 467.891 78.8906)" fill="#0F148E"/>
<rect x="680.375" y="95.9116" width="33.8906" height="33.8906" transform="rotate(88.6356 680.375 95.9116)" fill="#0F148E"/>
<rect x="824.881" y="62" width="33.8906" height="33.8906" transform="rotate(88.6356 824.881 62)" fill="#0F148E"/>
<rect x="958.242" y="40" width="33.8906" height="33.8906" transform="rotate(28.6356 958.242 40)" fill="#0F148E"/>
<rect x="58.811" y="45" width="33.8906" height="33.8906" fill="#0F148E"/>
<rect x="262.811" y="45" width="33.8906" height="33.8906" fill="#0F148E"/>
<rect x="502.08" y="112.891" width="33.8906" height="33.8906" transform="rotate(-180 502.08 112.891)" fill="#0F148E"/>
<rect x="713.552" y="60.9229" width="33.8906" height="33.8906" transform="rotate(88.6356 713.552 60.9229)" fill="#0F148E"/>
<rect x="857.881" y="61" width="33.8906" height="33.8906" transform="rotate(88.6356 857.881 61)" fill="#0F148E"/>
<rect x="965.242" width="33.8906" height="33.8906" transform="rotate(28.6356 965.242 0)" fill="#0F148E"/>
<rect y="81.8772" width="33.8906" height="33.8906" fill="#0F148E"/>
<rect x="229" y="79" width="33.8906" height="33.8906" fill="#0F148E"/>
<rect x="535.891" y="78.8906" width="33.8906" height="33.8906" transform="rotate(-180 535.891 78.8906)" fill="#0F148E"/>
<rect x="678.756" y="27.9309" width="33.8906" height="33.8906" transform="rotate(88.6356 678.756 27.9309)" fill="#0F148E"/>
<rect x="841.881" y="36" width="33.8906" height="33.8906" transform="rotate(88.6356 841.881 36)" fill="#0F148E"/>
<rect x="928.242" y="7" width="33.8906" height="33.8906" transform="rotate(28.6356 928.242 7)" fill="#0F148E"/>
</svg>
