<svg width="1920" height="776" viewBox="0 0 1920 776" fill="none" xmlns="http://www.w3.org/2000/svg">
<rect x="7.24414" y="189.287" width="42.0861" height="41.9546" fill="#C7FF51"/>
<rect x="7.51758" y="481.276" width="42.0861" height="41.9546" fill="#C7FF51"/>
<rect x="91.3594" y="189.287" width="42.0861" height="41.9546" fill="#C7FF51"/>
<rect x="91.3594" y="481.276" width="42.0861" height="41.9546" fill="#C7FF51"/>
<rect x="-34.4043" y="231.078" width="42.0861" height="41.9546" fill="#C7FF51"/>
<rect x="7.4082" y="230.968" width="42.0861" height="41.9546" fill="#C7FF51"/>
<rect x="49.2207" y="231.078" width="42.0861" height="41.9546" fill="#C7FF51"/>
<rect x="-34.4043" y="439.485" width="42.0861" height="41.9546" fill="#C7FF51"/>
<rect x="7.4082" y="439.485" width="42.0861" height="41.9546" fill="#C7FF51"/>
<rect x="49.2207" y="439.485" width="42.0861" height="41.9546" fill="#C7FF51"/>
<rect x="7.29883" y="272.759" width="42.0861" height="41.9546" fill="#C7FF51"/>
<rect x="7.29883" y="314.441" width="42.0861" height="41.9546" fill="#C7FF51"/>
<rect x="-34.5137" y="356.122" width="42.0861" height="41.9546" fill="#C7FF51"/>
<rect x="7.29883" y="356.122" width="42.0861" height="41.9546" fill="#C7FF51"/>
<rect x="-34.5137" y="397.804" width="42.0861" height="41.9546" fill="#C7FF51"/>
<rect x="7.29883" y="397.804" width="42.0861" height="41.9546" fill="#C7FF51"/>
<rect x="-34.5137" y="314.441" width="42.0861" height="41.9546" fill="#C7FF51"/>
<rect x="-34.5137" y="272.759" width="42.0861" height="41.9546" fill="#C7FF51"/>
<rect x="90.9219" y="272.759" width="42.0861" height="41.9546" fill="#C7FF51"/>
<rect x="90.9219" y="314.441" width="42.0861" height="41.9546" fill="#C7FF51"/>
<rect x="90.9219" y="356.122" width="42.0861" height="41.9546" fill="#C7FF51"/>
<rect x="90.9219" y="397.804" width="42.0861" height="41.9546" fill="#C7FF51"/>
<rect x="49.1094" y="272.759" width="42.0861" height="41.9546" fill="#C7FF51"/>
<rect x="49.1094" y="314.441" width="42.0861" height="41.9546" fill="#C7FF51"/>
<rect x="49.1094" y="356.122" width="42.0861" height="41.9546" fill="#C7FF51"/>
<rect x="49.1094" y="397.804" width="42.0861" height="41.9546" fill="#C7FF51"/>
<rect x="271.922" y="231.352" width="42.0861" height="41.9546" fill="#C7FF51"/>
<rect x="272.195" y="523.34" width="42.0861" height="41.9546" fill="#C7FF51"/>
<rect x="188.352" y="231.352" width="42.0861" height="41.9546" fill="#C7FF51"/>
<rect x="356.037" y="231.352" width="42.0861" height="41.9546" fill="#C7FF51"/>
<rect x="356.037" y="523.34" width="42.0861" height="41.9546" fill="#C7FF51"/>
<rect x="188.352" y="523.34" width="42.0861" height="41.9546" fill="#C7FF51"/>
<rect x="230.273" y="273.143" width="42.0861" height="41.9546" fill="#C7FF51"/>
<rect x="272.086" y="273.033" width="42.0861" height="41.9546" fill="#C7FF51"/>
<rect x="313.898" y="273.143" width="42.0861" height="41.9546" fill="#C7FF51"/>
<rect x="230.273" y="481.55" width="42.0861" height="41.9546" fill="#C7FF51"/>
<rect x="272.086" y="481.55" width="42.0861" height="41.9546" fill="#C7FF51"/>
<rect x="313.898" y="481.55" width="42.0861" height="41.9546" fill="#C7FF51"/>
<rect x="271.977" y="314.824" width="42.0861" height="41.9546" fill="#C7FF51"/>
<rect x="271.977" y="356.505" width="42.0861" height="41.9546" fill="#C7FF51"/>
<rect x="230.164" y="398.187" width="42.0861" height="41.9546" fill="#C7FF51"/>
<rect x="271.977" y="398.187" width="42.0861" height="41.9546" fill="#C7FF51"/>
<rect x="230.164" y="439.868" width="42.0861" height="41.9546" fill="#C7FF51"/>
<rect x="188.352" y="356.505" width="42.0861" height="41.9546" fill="#C7FF51"/>
<rect x="188.352" y="398.187" width="42.0861" height="41.9546" fill="#C7FF51"/>
<rect x="188.352" y="439.868" width="42.0861" height="41.9546" fill="#C7FF51"/>
<rect x="271.977" y="439.868" width="42.0861" height="41.9546" fill="#C7FF51"/>
<rect x="230.164" y="356.505" width="42.0861" height="41.9546" fill="#C7FF51"/>
<rect x="230.164" y="314.824" width="42.0861" height="41.9546" fill="#C7FF51"/>
<rect x="355.6" y="314.824" width="42.0861" height="41.9546" fill="#C7FF51"/>
<rect x="355.6" y="356.505" width="42.0861" height="41.9546" fill="#C7FF51"/>
<rect x="355.6" y="398.187" width="42.0861" height="41.9546" fill="#C7FF51"/>
<rect x="355.6" y="439.868" width="42.0861" height="41.9546" fill="#C7FF51"/>
<rect x="188.352" y="314.824" width="42.0861" height="41.9546" fill="#C7FF51"/>
<rect x="313.787" y="314.824" width="42.0861" height="41.9546" fill="#C7FF51"/>
<rect x="313.787" y="356.505" width="42.0861" height="41.9546" fill="#C7FF51"/>
<rect x="313.787" y="398.187" width="42.0861" height="41.9546" fill="#C7FF51"/>
<rect x="313.787" y="439.868" width="42.0861" height="41.9546" fill="#C7FF51"/>
<rect x="536.596" y="273.415" width="42.0861" height="41.9546" fill="#C7FF51"/>
<rect x="536.869" y="565.403" width="42.0861" height="41.9546" fill="#C7FF51"/>
<rect x="453.025" y="273.415" width="42.0861" height="41.9546" fill="#C7FF51"/>
<rect x="620.711" y="273.415" width="42.0861" height="41.9546" fill="#C7FF51"/>
<rect x="620.711" y="565.403" width="42.0861" height="41.9546" fill="#C7FF51"/>
<rect x="453.025" y="565.403" width="42.0861" height="41.9546" fill="#C7FF51"/>
<rect x="494.947" y="315.206" width="42.0861" height="41.9546" fill="#C7FF51"/>
<rect x="536.76" y="315.096" width="42.0861" height="41.9546" fill="#C7FF51"/>
<rect x="578.572" y="315.206" width="42.0861" height="41.9546" fill="#C7FF51"/>
<rect x="494.947" y="523.613" width="42.0861" height="41.9546" fill="#C7FF51"/>
<rect x="536.76" y="523.613" width="42.0861" height="41.9546" fill="#C7FF51"/>
<rect x="578.572" y="523.613" width="42.0861" height="41.9546" fill="#C7FF51"/>
<rect x="536.65" y="356.887" width="42.0861" height="41.9546" fill="#C7FF51"/>
<rect x="536.65" y="398.568" width="42.0861" height="41.9546" fill="#C7FF51"/>
<rect x="494.838" y="440.25" width="42.0861" height="41.9546" fill="#C7FF51"/>
<rect x="536.65" y="440.25" width="42.0861" height="41.9546" fill="#C7FF51"/>
<rect x="494.838" y="481.931" width="42.0861" height="41.9546" fill="#C7FF51"/>
<rect x="453.025" y="398.568" width="42.0861" height="41.9546" fill="#C7FF51"/>
<rect x="453.025" y="440.25" width="42.0861" height="41.9546" fill="#C7FF51"/>
<rect x="453.025" y="481.931" width="42.0861" height="41.9546" fill="#C7FF51"/>
<rect x="536.65" y="481.931" width="42.0861" height="41.9546" fill="#C7FF51"/>
<rect x="494.838" y="398.568" width="42.0861" height="41.9546" fill="#C7FF51"/>
<rect x="494.838" y="356.887" width="42.0861" height="41.9546" fill="#C7FF51"/>
<rect x="620.273" y="356.887" width="42.0861" height="41.9546" fill="#C7FF51"/>
<rect x="620.273" y="398.568" width="42.0861" height="41.9546" fill="#C7FF51"/>
<rect x="620.273" y="440.25" width="42.0861" height="41.9546" fill="#C7FF51"/>
<rect x="620.273" y="481.931" width="42.0861" height="41.9546" fill="#C7FF51"/>
<rect x="453.025" y="356.887" width="42.0861" height="41.9546" fill="#C7FF51"/>
<rect x="578.461" y="356.887" width="42.0861" height="41.9546" fill="#C7FF51"/>
<rect x="578.461" y="398.568" width="42.0861" height="41.9546" fill="#C7FF51"/>
<rect x="578.461" y="440.25" width="42.0861" height="41.9546" fill="#C7FF51"/>
<rect x="578.461" y="481.931" width="42.0861" height="41.9546" fill="#C7FF51"/>
<rect x="801.27" y="315.479" width="42.0861" height="41.9546" fill="#C7FF51"/>
<rect x="801.543" y="607.468" width="42.0861" height="41.9546" fill="#C7FF51"/>
<rect x="717.699" y="315.479" width="42.0861" height="41.9546" fill="#C7FF51"/>
<rect x="884.863" y="315.479" width="42.0861" height="41.9546" fill="#C7FF51"/>
<rect x="884.863" y="607.468" width="42.0861" height="41.9546" fill="#C7FF51"/>
<rect x="717.699" y="607.468" width="42.0861" height="41.9546" fill="#C7FF51"/>
<rect x="759.621" y="357.27" width="42.0861" height="41.9546" fill="#C7FF51"/>
<rect x="801.434" y="357.16" width="42.0861" height="41.9546" fill="#C7FF51"/>
<rect x="843.246" y="357.27" width="42.0861" height="41.9546" fill="#C7FF51"/>
<rect x="759.621" y="565.677" width="42.0861" height="41.9546" fill="#C7FF51"/>
<rect x="801.434" y="565.677" width="42.0861" height="41.9546" fill="#C7FF51"/>
<rect x="843.246" y="565.677" width="42.0861" height="41.9546" fill="#C7FF51"/>
<rect x="801.324" y="398.951" width="42.0861" height="41.9546" fill="#C7FF51"/>
<rect x="801.324" y="440.633" width="42.0861" height="41.9546" fill="#C7FF51"/>
<rect x="759.512" y="482.314" width="42.0861" height="41.9546" fill="#C7FF51"/>
<rect x="801.324" y="482.314" width="42.0861" height="41.9546" fill="#C7FF51"/>
<rect x="759.512" y="523.996" width="42.0861" height="41.9546" fill="#C7FF51"/>
<rect x="717.699" y="440.633" width="42.0861" height="41.9546" fill="#C7FF51"/>
<rect x="717.699" y="482.314" width="42.0861" height="41.9546" fill="#C7FF51"/>
<rect x="717.699" y="523.996" width="42.0861" height="41.9546" fill="#C7FF51"/>
<rect x="801.324" y="523.996" width="42.0861" height="41.9546" fill="#C7FF51"/>
<rect x="759.512" y="440.633" width="42.0861" height="41.9546" fill="#C7FF51"/>
<rect x="759.512" y="398.951" width="42.0861" height="41.9546" fill="#C7FF51"/>
<rect x="884.863" y="398.951" width="42.0861" height="41.9546" fill="#C7FF51"/>
<rect x="884.863" y="440.633" width="42.0861" height="41.9546" fill="#C7FF51"/>
<rect x="884.863" y="482.314" width="42.0861" height="41.9546" fill="#C7FF51"/>
<rect x="884.863" y="523.996" width="42.0861" height="41.9546" fill="#C7FF51"/>
<rect x="717.699" y="398.951" width="42.0861" height="41.9546" fill="#C7FF51"/>
<rect x="843.135" y="398.951" width="42.0861" height="41.9546" fill="#C7FF51"/>
<rect x="843.135" y="440.633" width="42.0861" height="41.9546" fill="#C7FF51"/>
<rect x="843.135" y="482.314" width="42.0861" height="41.9546" fill="#C7FF51"/>
<rect x="843.135" y="523.996" width="42.0861" height="41.9546" fill="#C7FF51"/>
<rect width="42.0861" height="41.9546" transform="matrix(1 0 0 -1 1065.4 692.031)" fill="#C7FF51"/>
<rect width="42.0861" height="41.9546" transform="matrix(1 0 0 -1 1065.67 400.042)" fill="#C7FF51"/>
<rect width="42.0861" height="41.9546" transform="matrix(1 0 0 -1 981.828 692.031)" fill="#C7FF51"/>
<rect width="42.0861" height="41.9546" transform="matrix(1 0 0 -1 1148.99 692.031)" fill="#C7FF51"/>
<rect width="42.0861" height="41.9546" transform="matrix(1 0 0 -1 1148.99 400.042)" fill="#C7FF51"/>
<rect width="42.0861" height="41.9546" transform="matrix(1 0 0 -1 981.828 400.042)" fill="#C7FF51"/>
<rect width="42.0861" height="41.9546" transform="matrix(1 0 0 -1 1023.75 650.24)" fill="#C7FF51"/>
<rect width="42.0861" height="41.9546" transform="matrix(1 0 0 -1 1065.56 650.35)" fill="#C7FF51"/>
<rect width="42.0861" height="41.9546" transform="matrix(1 0 0 -1 1107.38 650.24)" fill="#C7FF51"/>
<rect width="42.0861" height="41.9546" transform="matrix(1 0 0 -1 1023.75 441.833)" fill="#C7FF51"/>
<rect width="42.0861" height="41.9546" transform="matrix(1 0 0 -1 1065.56 441.833)" fill="#C7FF51"/>
<rect width="42.0861" height="41.9546" transform="matrix(1 0 0 -1 1107.38 441.833)" fill="#C7FF51"/>
<rect width="42.0861" height="41.9546" transform="matrix(1 0 0 -1 1065.45 608.559)" fill="#C7FF51"/>
<rect width="42.0861" height="41.9546" transform="matrix(1 0 0 -1 1065.45 566.877)" fill="#C7FF51"/>
<rect width="42.0861" height="41.9546" transform="matrix(1 0 0 -1 1023.64 525.196)" fill="#C7FF51"/>
<rect width="42.0861" height="41.9546" transform="matrix(1 0 0 -1 1065.45 525.196)" fill="#C7FF51"/>
<rect width="42.0861" height="41.9546" transform="matrix(1 0 0 -1 1023.64 483.515)" fill="#C7FF51"/>
<rect width="42.0861" height="41.9546" transform="matrix(1 0 0 -1 981.828 566.877)" fill="#C7FF51"/>
<rect width="42.0861" height="41.9546" transform="matrix(1 0 0 -1 981.828 525.196)" fill="#C7FF51"/>
<rect width="42.0861" height="41.9546" transform="matrix(1 0 0 -1 981.828 483.515)" fill="#C7FF51"/>
<rect width="42.0861" height="41.9546" transform="matrix(1 0 0 -1 1065.45 483.515)" fill="#C7FF51"/>
<rect width="42.0861" height="41.9546" transform="matrix(1 0 0 -1 1023.64 566.877)" fill="#C7FF51"/>
<rect width="42.0861" height="41.9546" transform="matrix(1 0 0 -1 1023.64 608.559)" fill="#C7FF51"/>
<rect width="42.0861" height="41.9546" transform="matrix(1 0 0 -1 1148.99 608.559)" fill="#C7FF51"/>
<rect width="42.0861" height="41.9546" transform="matrix(1 0 0 -1 1148.99 566.877)" fill="#C7FF51"/>
<rect width="42.0861" height="41.9546" transform="matrix(1 0 0 -1 1148.99 525.196)" fill="#C7FF51"/>
<rect width="42.0861" height="41.9546" transform="matrix(1 0 0 -1 1148.99 483.515)" fill="#C7FF51"/>
<rect width="42.0861" height="41.9546" transform="matrix(1 0 0 -1 981.828 608.559)" fill="#C7FF51"/>
<rect width="42.0861" height="41.9546" transform="matrix(1 0 0 -1 1107.26 608.559)" fill="#C7FF51"/>
<rect width="42.0861" height="41.9546" transform="matrix(1 0 0 -1 1107.26 566.877)" fill="#C7FF51"/>
<rect width="42.0861" height="41.9546" transform="matrix(1 0 0 -1 1107.26 525.196)" fill="#C7FF51"/>
<rect width="42.0861" height="41.9546" transform="matrix(1 0 0 -1 1107.26 483.515)" fill="#C7FF51"/>
<rect width="42.0861" height="41.9546" transform="matrix(1 0 0 -1 1329.53 648.33)" fill="#C7FF51"/>
<rect width="42.0861" height="41.9546" transform="matrix(1 0 0 -1 1329.8 356.341)" fill="#C7FF51"/>
<rect width="42.0861" height="41.9546" transform="matrix(1 0 0 -1 1245.96 648.33)" fill="#C7FF51"/>
<rect width="42.0861" height="41.9546" transform="matrix(1 0 0 -1 1413.12 648.33)" fill="#C7FF51"/>
<rect width="42.0861" height="41.9546" transform="matrix(1 0 0 -1 1413.12 356.341)" fill="#C7FF51"/>
<rect width="42.0861" height="41.9546" transform="matrix(1 0 0 -1 1245.96 356.341)" fill="#C7FF51"/>
<rect width="42.0861" height="41.9546" transform="matrix(1 0 0 -1 1287.88 606.539)" fill="#C7FF51"/>
<rect width="42.0861" height="41.9546" transform="matrix(1 0 0 -1 1329.69 606.649)" fill="#C7FF51"/>
<rect width="42.0861" height="41.9546" transform="matrix(1 0 0 -1 1371.5 606.539)" fill="#C7FF51"/>
<rect width="42.0861" height="41.9546" transform="matrix(1 0 0 -1 1287.88 398.132)" fill="#C7FF51"/>
<rect width="42.0861" height="41.9546" transform="matrix(1 0 0 -1 1329.69 398.132)" fill="#C7FF51"/>
<rect width="42.0861" height="41.9546" transform="matrix(1 0 0 -1 1371.5 398.132)" fill="#C7FF51"/>
<rect width="42.0861" height="41.9546" transform="matrix(1 0 0 -1 1329.58 564.858)" fill="#C7FF51"/>
<rect width="42.0861" height="41.9546" transform="matrix(1 0 0 -1 1329.58 523.176)" fill="#C7FF51"/>
<rect width="42.0861" height="41.9546" transform="matrix(1 0 0 -1 1287.77 481.495)" fill="#C7FF51"/>
<rect width="42.0861" height="41.9546" transform="matrix(1 0 0 -1 1329.58 481.495)" fill="#C7FF51"/>
<rect width="42.0861" height="41.9546" transform="matrix(1 0 0 -1 1287.77 439.813)" fill="#C7FF51"/>
<rect width="42.0861" height="41.9546" transform="matrix(1 0 0 -1 1245.96 523.176)" fill="#C7FF51"/>
<rect width="42.0861" height="41.9546" transform="matrix(1 0 0 -1 1245.96 481.495)" fill="#C7FF51"/>
<rect width="42.0861" height="41.9546" transform="matrix(1 0 0 -1 1245.96 439.813)" fill="#C7FF51"/>
<rect width="42.0861" height="41.9546" transform="matrix(1 0 0 -1 1329.58 439.813)" fill="#C7FF51"/>
<rect width="42.0861" height="41.9546" transform="matrix(1 0 0 -1 1287.77 523.176)" fill="#C7FF51"/>
<rect width="42.0861" height="41.9546" transform="matrix(1 0 0 -1 1287.77 564.858)" fill="#C7FF51"/>
<rect width="42.0861" height="41.9546" transform="matrix(1 0 0 -1 1413.12 564.858)" fill="#C7FF51"/>
<rect width="42.0861" height="41.9546" transform="matrix(1 0 0 -1 1413.12 523.176)" fill="#C7FF51"/>
<rect width="42.0861" height="41.9546" transform="matrix(1 0 0 -1 1413.12 481.495)" fill="#C7FF51"/>
<rect width="42.0861" height="41.9546" transform="matrix(1 0 0 -1 1413.12 439.813)" fill="#C7FF51"/>
<rect width="42.0861" height="41.9546" transform="matrix(1 0 0 -1 1245.96 564.858)" fill="#C7FF51"/>
<rect width="42.0861" height="41.9546" transform="matrix(1 0 0 -1 1371.39 564.858)" fill="#C7FF51"/>
<rect width="42.0861" height="41.9546" transform="matrix(1 0 0 -1 1371.39 523.176)" fill="#C7FF51"/>
<rect width="42.0861" height="41.9546" transform="matrix(1 0 0 -1 1371.39 481.495)" fill="#C7FF51"/>
<rect width="42.0861" height="41.9546" transform="matrix(1 0 0 -1 1371.39 439.813)" fill="#C7FF51"/>
<rect width="42.0861" height="41.9546" transform="matrix(1 0 0 -1 1593.65 606.266)" fill="#C7FF51"/>
<rect width="42.0861" height="41.9546" transform="matrix(1 0 0 -1 1593.93 314.277)" fill="#C7FF51"/>
<rect width="42.0861" height="41.9546" transform="matrix(1 0 0 -1 1510.08 606.266)" fill="#C7FF51"/>
<rect width="42.0861" height="41.9546" transform="matrix(1 0 0 -1 1677.25 606.266)" fill="#C7FF51"/>
<rect width="42.0861" height="41.9546" transform="matrix(1 0 0 -1 1677.25 314.277)" fill="#C7FF51"/>
<rect width="42.0861" height="41.9546" transform="matrix(1 0 0 -1 1510.08 314.277)" fill="#C7FF51"/>
<rect width="42.0861" height="41.9546" transform="matrix(1 0 0 -1 1552.01 564.475)" fill="#C7FF51"/>
<rect width="42.0861" height="41.9546" transform="matrix(1 0 0 -1 1593.82 564.584)" fill="#C7FF51"/>
<rect width="42.0861" height="41.9546" transform="matrix(1 0 0 -1 1635.63 564.475)" fill="#C7FF51"/>
<rect width="42.0861" height="41.9546" transform="matrix(1 0 0 -1 1552.01 356.067)" fill="#C7FF51"/>
<rect width="42.0861" height="41.9546" transform="matrix(1 0 0 -1 1593.82 356.067)" fill="#C7FF51"/>
<rect width="42.0861" height="41.9546" transform="matrix(1 0 0 -1 1635.63 356.067)" fill="#C7FF51"/>
<rect width="42.0861" height="41.9546" transform="matrix(1 0 0 -1 1593.71 522.793)" fill="#C7FF51"/>
<rect width="42.0861" height="41.9546" transform="matrix(1 0 0 -1 1593.71 481.112)" fill="#C7FF51"/>
<rect width="42.0861" height="41.9546" transform="matrix(1 0 0 -1 1551.9 439.431)" fill="#C7FF51"/>
<rect width="42.0861" height="41.9546" transform="matrix(1 0 0 -1 1593.71 439.431)" fill="#C7FF51"/>
<rect width="42.0861" height="41.9546" transform="matrix(1 0 0 -1 1551.9 397.749)" fill="#C7FF51"/>
<rect width="42.0861" height="41.9546" transform="matrix(1 0 0 -1 1510.08 481.112)" fill="#C7FF51"/>
<rect width="42.0861" height="41.9546" transform="matrix(1 0 0 -1 1510.08 439.431)" fill="#C7FF51"/>
<rect width="42.0861" height="41.9546" transform="matrix(1 0 0 -1 1510.08 397.749)" fill="#C7FF51"/>
<rect width="42.0861" height="41.9546" transform="matrix(1 0 0 -1 1593.71 397.749)" fill="#C7FF51"/>
<rect width="42.0861" height="41.9546" transform="matrix(1 0 0 -1 1551.9 481.112)" fill="#C7FF51"/>
<rect width="42.0861" height="41.9546" transform="matrix(1 0 0 -1 1551.9 522.793)" fill="#C7FF51"/>
<rect width="42.0861" height="41.9546" transform="matrix(1 0 0 -1 1677.25 522.793)" fill="#C7FF51"/>
<rect width="42.0861" height="41.9546" transform="matrix(1 0 0 -1 1677.25 481.112)" fill="#C7FF51"/>
<rect width="42.0861" height="41.9546" transform="matrix(1 0 0 -1 1677.25 439.431)" fill="#C7FF51"/>
<rect width="42.0861" height="41.9546" transform="matrix(1 0 0 -1 1677.25 397.749)" fill="#C7FF51"/>
<rect width="42.0861" height="41.9546" transform="matrix(1 0 0 -1 1510.08 522.793)" fill="#C7FF51"/>
<rect width="42.0861" height="41.9546" transform="matrix(1 0 0 -1 1635.52 522.793)" fill="#C7FF51"/>
<rect width="42.0861" height="41.9546" transform="matrix(1 0 0 -1 1635.52 481.112)" fill="#C7FF51"/>
<rect width="42.0861" height="41.9546" transform="matrix(1 0 0 -1 1635.52 439.431)" fill="#C7FF51"/>
<rect width="42.0861" height="41.9546" transform="matrix(1 0 0 -1 1635.52 397.749)" fill="#C7FF51"/>
<rect width="42.0861" height="41.9546" transform="matrix(1 0 0 -1 1857.78 504.383)" fill="#C7FF51"/>
<rect width="42.0861" height="41.9546" transform="matrix(1 0 0 -1 1858.05 212.395)" fill="#C7FF51"/>
<rect width="42.0861" height="41.9546" transform="matrix(1 0 0 -1 1774.21 504.383)" fill="#C7FF51"/>
<rect width="42.0861" height="41.9546" transform="matrix(1 0 0 -1 1774.21 212.395)" fill="#C7FF51"/>
<rect width="42.0861" height="41.9546" transform="matrix(1 0 0 -1 1816.13 462.592)" fill="#C7FF51"/>
<rect width="42.0861" height="41.9546" transform="matrix(1 0 0 -1 1857.95 462.702)" fill="#C7FF51"/>
<rect width="42.0861" height="41.9546" transform="matrix(1 0 0 -1 1899.76 462.592)" fill="#C7FF51"/>
<rect width="42.0861" height="41.9546" transform="matrix(1 0 0 -1 1816.13 254.186)" fill="#C7FF51"/>
<rect width="42.0861" height="41.9546" transform="matrix(1 0 0 -1 1857.95 254.186)" fill="#C7FF51"/>
<rect width="42.0861" height="41.9546" transform="matrix(1 0 0 -1 1899.76 254.186)" fill="#C7FF51"/>
<rect width="42.0861" height="41.9546" transform="matrix(1 0 0 -1 1857.84 420.911)" fill="#C7FF51"/>
<rect width="42.0861" height="41.9546" transform="matrix(1 0 0 -1 1857.84 379.229)" fill="#C7FF51"/>
<rect width="42.0861" height="41.9546" transform="matrix(1 0 0 -1 1816.02 337.548)" fill="#C7FF51"/>
<rect width="42.0861" height="41.9546" transform="matrix(1 0 0 -1 1857.84 337.548)" fill="#C7FF51"/>
<rect width="42.0861" height="41.9546" transform="matrix(1 0 0 -1 1816.02 295.867)" fill="#C7FF51"/>
<rect width="42.0861" height="41.9546" transform="matrix(1 0 0 -1 1774.21 379.229)" fill="#C7FF51"/>
<rect width="42.0861" height="41.9546" transform="matrix(1 0 0 -1 1774.21 337.548)" fill="#C7FF51"/>
<rect width="42.0861" height="41.9546" transform="matrix(1 0 0 -1 1774.21 295.867)" fill="#C7FF51"/>
<rect width="42.0861" height="41.9546" transform="matrix(1 0 0 -1 1857.84 295.867)" fill="#C7FF51"/>
<rect width="42.0861" height="41.9546" transform="matrix(1 0 0 -1 1816.02 379.229)" fill="#C7FF51"/>
<rect width="42.0861" height="41.9546" transform="matrix(1 0 0 -1 1816.02 420.911)" fill="#C7FF51"/>
<rect width="42.0861" height="41.9546" transform="matrix(1 0 0 -1 1774.21 420.911)" fill="#C7FF51"/>
<rect width="42.0861" height="41.9546" transform="matrix(1 0 0 -1 1899.65 420.911)" fill="#C7FF51"/>
<rect width="42.0861" height="41.9546" transform="matrix(1 0 0 -1 1899.65 379.229)" fill="#C7FF51"/>
<rect width="42.0861" height="41.9546" transform="matrix(1 0 0 -1 1899.65 337.548)" fill="#C7FF51"/>
<rect width="42.0861" height="41.9546" transform="matrix(1 0 0 -1 1899.65 295.867)" fill="#C7FF51"/>
<rect x="95.4707" y="231.078" width="42.0861" height="41.9546" fill="#FB95D2"/>
<rect x="95.7441" y="523.066" width="42.0861" height="41.9546" fill="#FB95D2"/>
<rect x="11.9004" y="231.078" width="42.0861" height="41.9546" fill="#FB95D2"/>
<rect x="179.586" y="231.078" width="42.0861" height="41.9546" fill="#FB95D2"/>
<rect x="179.586" y="523.066" width="42.0861" height="41.9546" fill="#FB95D2"/>
<rect x="11.9004" y="523.066" width="42.0861" height="41.9546" fill="#FB95D2"/>
<rect x="53.8223" y="272.869" width="42.0861" height="41.9546" fill="#FB95D2"/>
<rect x="95.6328" y="272.759" width="42.0861" height="41.9546" fill="#FB95D2"/>
<rect x="137.445" y="272.869" width="42.0861" height="41.9546" fill="#FB95D2"/>
<rect x="53.8223" y="481.276" width="42.0861" height="41.9546" fill="#FB95D2"/>
<rect x="95.6328" y="481.276" width="42.0861" height="41.9546" fill="#FB95D2"/>
<rect x="137.445" y="481.276" width="42.0861" height="41.9546" fill="#FB95D2"/>
<rect x="95.5254" y="314.55" width="42.0861" height="41.9546" fill="#FB95D2"/>
<rect x="95.5254" y="356.231" width="42.0861" height="41.9546" fill="#FB95D2"/>
<rect x="53.7129" y="397.913" width="42.0861" height="41.9546" fill="#FB95D2"/>
<rect x="95.5254" y="397.913" width="42.0861" height="41.9546" fill="#FB95D2"/>
<rect x="53.7129" y="439.594" width="42.0861" height="41.9546" fill="#FB95D2"/>
<rect x="11.9004" y="356.231" width="42.0861" height="41.9546" fill="#FB95D2"/>
<rect x="11.9004" y="397.913" width="42.0861" height="41.9546" fill="#FB95D2"/>
<rect x="11.9004" y="439.594" width="42.0861" height="41.9546" fill="#FB95D2"/>
<rect x="95.5254" y="439.594" width="42.0861" height="41.9546" fill="#FB95D2"/>
<rect x="53.7129" y="356.231" width="42.0861" height="41.9546" fill="#FB95D2"/>
<rect x="53.7129" y="314.55" width="42.0861" height="41.9546" fill="#FB95D2"/>
<rect x="179.148" y="314.55" width="42.0861" height="41.9546" fill="#FB95D2"/>
<rect x="179.148" y="356.231" width="42.0861" height="41.9546" fill="#FB95D2"/>
<rect x="179.148" y="397.913" width="42.0861" height="41.9546" fill="#FB95D2"/>
<rect x="179.148" y="439.594" width="42.0861" height="41.9546" fill="#FB95D2"/>
<rect x="11.9004" y="314.55" width="42.0861" height="41.9546" fill="#FB95D2"/>
<rect x="137.336" y="314.55" width="42.0861" height="41.9546" fill="#FB95D2"/>
<rect x="137.336" y="356.231" width="42.0861" height="41.9546" fill="#FB95D2"/>
<rect x="137.336" y="397.913" width="42.0861" height="41.9546" fill="#FB95D2"/>
<rect x="137.336" y="439.594" width="42.0861" height="41.9546" fill="#FB95D2"/>
<rect x="360.145" y="273.142" width="42.0861" height="41.9546" fill="#FB95D2"/>
<rect x="360.418" y="565.131" width="42.0861" height="41.9546" fill="#FB95D2"/>
<rect x="276.574" y="273.142" width="42.0861" height="41.9546" fill="#FB95D2"/>
<rect x="444.26" y="273.142" width="42.0861" height="41.9546" fill="#FB95D2"/>
<rect x="444.26" y="565.131" width="42.0861" height="41.9546" fill="#FB95D2"/>
<rect x="276.574" y="565.131" width="42.0861" height="41.9546" fill="#FB95D2"/>
<rect x="318.496" y="314.933" width="42.0861" height="41.9546" fill="#FB95D2"/>
<rect x="360.309" y="314.823" width="42.0861" height="41.9546" fill="#FB95D2"/>
<rect x="402.121" y="314.933" width="42.0861" height="41.9546" fill="#FB95D2"/>
<rect x="318.496" y="523.34" width="42.0861" height="41.9546" fill="#FB95D2"/>
<rect x="360.309" y="523.34" width="42.0861" height="41.9546" fill="#FB95D2"/>
<rect x="402.121" y="523.34" width="42.0861" height="41.9546" fill="#FB95D2"/>
<rect x="360.199" y="356.614" width="42.0861" height="41.9546" fill="#FB95D2"/>
<rect x="360.199" y="398.296" width="42.0861" height="41.9546" fill="#FB95D2"/>
<rect x="318.387" y="439.977" width="42.0861" height="41.9546" fill="#FB95D2"/>
<rect x="360.199" y="439.977" width="42.0861" height="41.9546" fill="#FB95D2"/>
<rect x="318.387" y="481.659" width="42.0861" height="41.9546" fill="#FB95D2"/>
<rect x="276.574" y="398.296" width="42.0861" height="41.9546" fill="#FB95D2"/>
<rect x="276.574" y="439.977" width="42.0861" height="41.9546" fill="#FB95D2"/>
<rect x="276.574" y="481.659" width="42.0861" height="41.9546" fill="#FB95D2"/>
<rect x="360.199" y="481.659" width="42.0861" height="41.9546" fill="#FB95D2"/>
<rect x="318.387" y="398.296" width="42.0861" height="41.9546" fill="#FB95D2"/>
<rect x="318.387" y="356.614" width="42.0861" height="41.9546" fill="#FB95D2"/>
<rect x="443.822" y="356.614" width="42.0861" height="41.9546" fill="#FB95D2"/>
<rect x="443.822" y="398.296" width="42.0861" height="41.9546" fill="#FB95D2"/>
<rect x="443.822" y="439.977" width="42.0861" height="41.9546" fill="#FB95D2"/>
<rect x="443.822" y="481.659" width="42.0861" height="41.9546" fill="#FB95D2"/>
<rect x="276.574" y="356.614" width="42.0861" height="41.9546" fill="#FB95D2"/>
<rect x="402.01" y="356.614" width="42.0861" height="41.9546" fill="#FB95D2"/>
<rect x="402.01" y="398.296" width="42.0861" height="41.9546" fill="#FB95D2"/>
<rect x="402.01" y="439.977" width="42.0861" height="41.9546" fill="#FB95D2"/>
<rect x="402.01" y="481.659" width="42.0861" height="41.9546" fill="#FB95D2"/>
<rect x="624.82" y="315.206" width="42.0861" height="41.9546" fill="#FB95D2"/>
<rect x="625.094" y="607.194" width="42.0861" height="41.9546" fill="#FB95D2"/>
<rect x="541.25" y="315.206" width="42.0861" height="41.9546" fill="#FB95D2"/>
<rect x="708.936" y="315.206" width="42.0861" height="41.9546" fill="#FB95D2"/>
<rect x="708.936" y="607.194" width="42.0861" height="41.9546" fill="#FB95D2"/>
<rect x="541.25" y="607.194" width="42.0861" height="41.9546" fill="#FB95D2"/>
<rect x="583.172" y="356.997" width="42.0861" height="41.9546" fill="#FB95D2"/>
<rect x="624.984" y="356.887" width="42.0861" height="41.9546" fill="#FB95D2"/>
<rect x="666.797" y="356.997" width="42.0861" height="41.9546" fill="#FB95D2"/>
<rect x="583.172" y="565.404" width="42.0861" height="41.9546" fill="#FB95D2"/>
<rect x="624.984" y="565.404" width="42.0861" height="41.9546" fill="#FB95D2"/>
<rect x="666.797" y="565.404" width="42.0861" height="41.9546" fill="#FB95D2"/>
<rect x="624.875" y="398.678" width="42.0861" height="41.9546" fill="#FB95D2"/>
<rect x="624.875" y="440.359" width="42.0861" height="41.9546" fill="#FB95D2"/>
<rect x="583.062" y="482.041" width="42.0861" height="41.9546" fill="#FB95D2"/>
<rect x="624.875" y="482.041" width="42.0861" height="41.9546" fill="#FB95D2"/>
<rect x="583.062" y="523.722" width="42.0861" height="41.9546" fill="#FB95D2"/>
<rect x="541.25" y="440.359" width="42.0861" height="41.9546" fill="#FB95D2"/>
<rect x="541.25" y="482.041" width="42.0861" height="41.9546" fill="#FB95D2"/>
<rect x="541.25" y="523.722" width="42.0861" height="41.9546" fill="#FB95D2"/>
<rect x="624.875" y="523.722" width="42.0861" height="41.9546" fill="#FB95D2"/>
<rect x="583.062" y="440.359" width="42.0861" height="41.9546" fill="#FB95D2"/>
<rect x="583.062" y="398.678" width="42.0861" height="41.9546" fill="#FB95D2"/>
<rect x="708.498" y="398.678" width="42.0861" height="41.9546" fill="#FB95D2"/>
<rect x="708.498" y="440.359" width="42.0861" height="41.9546" fill="#FB95D2"/>
<rect x="708.498" y="482.041" width="42.0861" height="41.9546" fill="#FB95D2"/>
<rect x="708.498" y="523.722" width="42.0861" height="41.9546" fill="#FB95D2"/>
<rect x="541.25" y="398.678" width="42.0861" height="41.9546" fill="#FB95D2"/>
<rect x="666.686" y="398.678" width="42.0861" height="41.9546" fill="#FB95D2"/>
<rect x="666.686" y="440.359" width="42.0861" height="41.9546" fill="#FB95D2"/>
<rect x="666.686" y="482.041" width="42.0861" height="41.9546" fill="#FB95D2"/>
<rect x="666.686" y="523.722" width="42.0861" height="41.9546" fill="#FB95D2"/>
<rect width="42.0861" height="41.9546" transform="matrix(1 0 0 -1 1153.07 650.242)" fill="#FB95D2"/>
<rect width="42.0861" height="41.9546" transform="matrix(1 0 0 -1 1153.35 358.254)" fill="#FB95D2"/>
<rect width="42.0861" height="41.9546" transform="matrix(1 0 0 -1 1069.5 650.242)" fill="#FB95D2"/>
<rect width="42.0861" height="41.9546" transform="matrix(1 0 0 -1 1237.19 650.242)" fill="#FB95D2"/>
<rect width="42.0861" height="41.9546" transform="matrix(1 0 0 -1 1237.19 358.254)" fill="#FB95D2"/>
<rect width="42.0861" height="41.9546" transform="matrix(1 0 0 -1 1069.5 358.254)" fill="#FB95D2"/>
<rect width="42.0861" height="41.9546" transform="matrix(1 0 0 -1 1111.43 608.451)" fill="#FB95D2"/>
<rect width="42.0861" height="41.9546" transform="matrix(1 0 0 -1 1153.24 608.561)" fill="#FB95D2"/>
<rect width="42.0861" height="41.9546" transform="matrix(1 0 0 -1 1195.05 608.451)" fill="#FB95D2"/>
<rect width="42.0861" height="41.9546" transform="matrix(1 0 0 -1 1111.43 400.044)" fill="#FB95D2"/>
<rect width="42.0861" height="41.9546" transform="matrix(1 0 0 -1 1153.24 400.044)" fill="#FB95D2"/>
<rect width="42.0861" height="41.9546" transform="matrix(1 0 0 -1 1195.05 400.044)" fill="#FB95D2"/>
<rect width="42.0861" height="41.9546" transform="matrix(1 0 0 -1 1153.13 566.77)" fill="#FB95D2"/>
<rect width="42.0861" height="41.9546" transform="matrix(1 0 0 -1 1153.13 525.088)" fill="#FB95D2"/>
<rect width="42.0861" height="41.9546" transform="matrix(1 0 0 -1 1111.32 483.407)" fill="#FB95D2"/>
<rect width="42.0861" height="41.9546" transform="matrix(1 0 0 -1 1153.13 483.407)" fill="#FB95D2"/>
<rect width="42.0861" height="41.9546" transform="matrix(1 0 0 -1 1111.32 441.726)" fill="#FB95D2"/>
<rect width="42.0861" height="41.9546" transform="matrix(1 0 0 -1 1069.5 525.088)" fill="#FB95D2"/>
<rect width="42.0861" height="41.9546" transform="matrix(1 0 0 -1 1069.5 483.407)" fill="#FB95D2"/>
<rect width="42.0861" height="41.9546" transform="matrix(1 0 0 -1 1069.5 441.726)" fill="#FB95D2"/>
<rect width="42.0861" height="41.9546" transform="matrix(1 0 0 -1 1153.13 441.726)" fill="#FB95D2"/>
<rect width="42.0861" height="41.9546" transform="matrix(1 0 0 -1 1111.32 525.088)" fill="#FB95D2"/>
<rect width="42.0861" height="41.9546" transform="matrix(1 0 0 -1 1111.32 566.77)" fill="#FB95D2"/>
<rect width="42.0861" height="41.9546" transform="matrix(1 0 0 -1 1236.75 566.77)" fill="#FB95D2"/>
<rect width="42.0861" height="41.9546" transform="matrix(1 0 0 -1 1236.75 525.088)" fill="#FB95D2"/>
<rect width="42.0861" height="41.9546" transform="matrix(1 0 0 -1 1236.75 483.407)" fill="#FB95D2"/>
<rect width="42.0861" height="41.9546" transform="matrix(1 0 0 -1 1236.75 441.726)" fill="#FB95D2"/>
<rect width="42.0861" height="41.9546" transform="matrix(1 0 0 -1 1069.5 566.77)" fill="#FB95D2"/>
<rect width="42.0861" height="41.9546" transform="matrix(1 0 0 -1 1194.94 566.77)" fill="#FB95D2"/>
<rect width="42.0861" height="41.9546" transform="matrix(1 0 0 -1 1194.94 525.088)" fill="#FB95D2"/>
<rect width="42.0861" height="41.9546" transform="matrix(1 0 0 -1 1194.94 483.407)" fill="#FB95D2"/>
<rect width="42.0861" height="41.9546" transform="matrix(1 0 0 -1 1194.94 441.726)" fill="#FB95D2"/>
<rect width="42.0861" height="41.9546" transform="matrix(1 0 0 -1 1417.2 606.539)" fill="#FB95D2"/>
<rect width="42.0861" height="41.9546" transform="matrix(1 0 0 -1 1417.48 314.55)" fill="#FB95D2"/>
<rect width="42.0861" height="41.9546" transform="matrix(1 0 0 -1 1333.63 606.539)" fill="#FB95D2"/>
<rect width="42.0861" height="41.9546" transform="matrix(1 0 0 -1 1501.32 606.539)" fill="#FB95D2"/>
<rect width="42.0861" height="41.9546" transform="matrix(1 0 0 -1 1501.32 314.55)" fill="#FB95D2"/>
<rect width="42.0861" height="41.9546" transform="matrix(1 0 0 -1 1333.63 314.55)" fill="#FB95D2"/>
<rect width="42.0861" height="41.9546" transform="matrix(1 0 0 -1 1375.55 564.748)" fill="#FB95D2"/>
<rect width="42.0861" height="41.9546" transform="matrix(1 0 0 -1 1417.37 564.857)" fill="#FB95D2"/>
<rect width="42.0861" height="41.9546" transform="matrix(1 0 0 -1 1459.18 564.748)" fill="#FB95D2"/>
<rect width="42.0861" height="41.9546" transform="matrix(1 0 0 -1 1375.55 356.341)" fill="#FB95D2"/>
<rect width="42.0861" height="41.9546" transform="matrix(1 0 0 -1 1417.37 356.341)" fill="#FB95D2"/>
<rect width="42.0861" height="41.9546" transform="matrix(1 0 0 -1 1459.18 356.341)" fill="#FB95D2"/>
<rect width="42.0861" height="41.9546" transform="matrix(1 0 0 -1 1417.26 523.066)" fill="#FB95D2"/>
<rect width="42.0861" height="41.9546" transform="matrix(1 0 0 -1 1417.26 481.385)" fill="#FB95D2"/>
<rect width="42.0861" height="41.9546" transform="matrix(1 0 0 -1 1375.45 439.704)" fill="#FB95D2"/>
<rect width="42.0861" height="41.9546" transform="matrix(1 0 0 -1 1417.26 439.704)" fill="#FB95D2"/>
<rect width="42.0861" height="41.9546" transform="matrix(1 0 0 -1 1375.45 398.022)" fill="#FB95D2"/>
<rect width="42.0861" height="41.9546" transform="matrix(1 0 0 -1 1333.63 481.385)" fill="#FB95D2"/>
<rect width="42.0861" height="41.9546" transform="matrix(1 0 0 -1 1333.63 439.704)" fill="#FB95D2"/>
<rect width="42.0861" height="41.9546" transform="matrix(1 0 0 -1 1333.63 398.022)" fill="#FB95D2"/>
<rect width="42.0861" height="41.9546" transform="matrix(1 0 0 -1 1417.26 398.022)" fill="#FB95D2"/>
<rect width="42.0861" height="41.9546" transform="matrix(1 0 0 -1 1375.45 481.385)" fill="#FB95D2"/>
<rect width="42.0861" height="41.9546" transform="matrix(1 0 0 -1 1375.45 523.066)" fill="#FB95D2"/>
<rect width="42.0861" height="41.9546" transform="matrix(1 0 0 -1 1500.88 523.066)" fill="#FB95D2"/>
<rect width="42.0861" height="41.9546" transform="matrix(1 0 0 -1 1500.88 481.385)" fill="#FB95D2"/>
<rect width="42.0861" height="41.9546" transform="matrix(1 0 0 -1 1500.88 439.704)" fill="#FB95D2"/>
<rect width="42.0861" height="41.9546" transform="matrix(1 0 0 -1 1500.88 398.022)" fill="#FB95D2"/>
<rect width="42.0861" height="41.9546" transform="matrix(1 0 0 -1 1333.63 523.066)" fill="#FB95D2"/>
<rect width="42.0861" height="41.9546" transform="matrix(1 0 0 -1 1459.07 523.066)" fill="#FB95D2"/>
<rect width="42.0861" height="41.9546" transform="matrix(1 0 0 -1 1459.07 481.385)" fill="#FB95D2"/>
<rect width="42.0861" height="41.9546" transform="matrix(1 0 0 -1 1459.07 439.704)" fill="#FB95D2"/>
<rect width="42.0861" height="41.9546" transform="matrix(1 0 0 -1 1459.07 398.022)" fill="#FB95D2"/>
<rect width="42.0861" height="41.9546" transform="matrix(1 0 0 -1 1681.33 564.475)" fill="#FB95D2"/>
<rect width="42.0861" height="41.9546" transform="matrix(1 0 0 -1 1681.6 272.486)" fill="#FB95D2"/>
<rect width="42.0861" height="41.9546" transform="matrix(1 0 0 -1 1597.76 564.475)" fill="#FB95D2"/>
<rect width="42.0861" height="41.9546" transform="matrix(1 0 0 -1 1765.45 564.475)" fill="#FB95D2"/>
<rect width="42.0861" height="41.9546" transform="matrix(1 0 0 -1 1765.45 272.486)" fill="#FB95D2"/>
<rect width="42.0861" height="41.9546" transform="matrix(1 0 0 -1 1597.76 272.486)" fill="#FB95D2"/>
<rect width="42.0861" height="41.9546" transform="matrix(1 0 0 -1 1639.68 522.684)" fill="#FB95D2"/>
<rect width="42.0861" height="41.9546" transform="matrix(1 0 0 -1 1681.49 522.793)" fill="#FB95D2"/>
<rect width="42.0861" height="41.9546" transform="matrix(1 0 0 -1 1723.31 522.684)" fill="#FB95D2"/>
<rect width="42.0861" height="41.9546" transform="matrix(1 0 0 -1 1639.68 314.276)" fill="#FB95D2"/>
<rect width="42.0861" height="41.9546" transform="matrix(1 0 0 -1 1681.49 314.276)" fill="#FB95D2"/>
<rect width="42.0861" height="41.9546" transform="matrix(1 0 0 -1 1723.31 314.276)" fill="#FB95D2"/>
<rect width="42.0861" height="41.9546" transform="matrix(1 0 0 -1 1681.38 481.002)" fill="#FB95D2"/>
<rect width="42.0861" height="41.9546" transform="matrix(1 0 0 -1 1681.38 439.321)" fill="#FB95D2"/>
<rect width="42.0861" height="41.9546" transform="matrix(1 0 0 -1 1639.57 397.64)" fill="#FB95D2"/>
<rect width="42.0861" height="41.9546" transform="matrix(1 0 0 -1 1681.38 397.64)" fill="#FB95D2"/>
<rect width="42.0861" height="41.9546" transform="matrix(1 0 0 -1 1639.57 355.958)" fill="#FB95D2"/>
<rect width="42.0861" height="41.9546" transform="matrix(1 0 0 -1 1597.76 439.321)" fill="#FB95D2"/>
<rect width="42.0861" height="41.9546" transform="matrix(1 0 0 -1 1597.76 397.64)" fill="#FB95D2"/>
<rect width="42.0861" height="41.9546" transform="matrix(1 0 0 -1 1597.76 355.958)" fill="#FB95D2"/>
<rect width="42.0861" height="41.9546" transform="matrix(1 0 0 -1 1681.38 355.958)" fill="#FB95D2"/>
<rect width="42.0861" height="41.9546" transform="matrix(1 0 0 -1 1639.57 439.321)" fill="#FB95D2"/>
<rect width="42.0861" height="41.9546" transform="matrix(1 0 0 -1 1639.57 481.002)" fill="#FB95D2"/>
<rect width="42.0861" height="41.9546" transform="matrix(1 0 0 -1 1765.01 481.002)" fill="#FB95D2"/>
<rect width="42.0861" height="41.9546" transform="matrix(1 0 0 -1 1765.01 439.321)" fill="#FB95D2"/>
<rect width="42.0861" height="41.9546" transform="matrix(1 0 0 -1 1765.01 397.64)" fill="#FB95D2"/>
<rect width="42.0861" height="41.9546" transform="matrix(1 0 0 -1 1765.01 355.958)" fill="#FB95D2"/>
<rect width="42.0861" height="41.9546" transform="matrix(1 0 0 -1 1597.76 481.002)" fill="#FB95D2"/>
<rect width="42.0861" height="41.9546" transform="matrix(1 0 0 -1 1723.2 481.002)" fill="#FB95D2"/>
<rect width="42.0861" height="41.9546" transform="matrix(1 0 0 -1 1723.2 439.321)" fill="#FB95D2"/>
<rect width="42.0861" height="41.9546" transform="matrix(1 0 0 -1 1723.2 397.64)" fill="#FB95D2"/>
<rect width="42.0861" height="41.9546" transform="matrix(1 0 0 -1 1723.2 355.958)" fill="#FB95D2"/>
<rect width="42.0861" height="41.9546" transform="matrix(1 0 0 -1 1861.89 462.593)" fill="#FB95D2"/>
<rect width="42.0861" height="41.9546" transform="matrix(1 0 0 -1 1861.89 170.604)" fill="#FB95D2"/>
<rect width="42.0861" height="41.9546" transform="matrix(1 0 0 -1 1903.81 420.802)" fill="#FB95D2"/>
<rect width="42.0861" height="41.9546" transform="matrix(1 0 0 -1 1903.81 212.395)" fill="#FB95D2"/>
<rect width="42.0861" height="41.9546" transform="matrix(1 0 0 -1 1903.7 295.758)" fill="#FB95D2"/>
<rect width="42.0861" height="41.9546" transform="matrix(1 0 0 -1 1903.7 254.076)" fill="#FB95D2"/>
<rect width="42.0861" height="41.9546" transform="matrix(1 0 0 -1 1861.89 337.439)" fill="#FB95D2"/>
<rect width="42.0861" height="41.9546" transform="matrix(1 0 0 -1 1861.89 295.758)" fill="#FB95D2"/>
<rect width="42.0861" height="41.9546" transform="matrix(1 0 0 -1 1861.89 254.076)" fill="#FB95D2"/>
<rect width="42.0861" height="41.9546" transform="matrix(1 0 0 -1 1903.7 337.439)" fill="#FB95D2"/>
<rect width="42.0861" height="41.9546" transform="matrix(1 0 0 -1 1903.7 379.121)" fill="#FB95D2"/>
<rect width="42.0861" height="41.9546" transform="matrix(1 0 0 -1 1861.89 379.121)" fill="#FB95D2"/>
<rect x="888.949" y="357.27" width="42.0861" height="41.9546" fill="#FB95D2"/>
<rect x="889.223" y="649.258" width="42.0861" height="41.9546" fill="#FB95D2"/>
<rect x="805.379" y="357.27" width="42.0861" height="41.9546" fill="#FB95D2"/>
<rect x="973.064" y="357.27" width="42.0861" height="41.9546" fill="#FB95D2"/>
<rect x="973.064" y="649.258" width="42.0861" height="41.9546" fill="#FB95D2"/>
<rect x="805.379" y="649.258" width="42.0861" height="41.9546" fill="#FB95D2"/>
<rect x="847.301" y="399.061" width="42.0861" height="41.9546" fill="#FB95D2"/>
<rect x="889.113" y="398.951" width="42.0861" height="41.9546" fill="#FB95D2"/>
<rect x="930.926" y="399.061" width="42.0861" height="41.9546" fill="#FB95D2"/>
<rect x="847.301" y="607.468" width="42.0861" height="41.9546" fill="#FB95D2"/>
<rect x="889.113" y="607.468" width="42.0861" height="41.9546" fill="#FB95D2"/>
<rect x="930.926" y="607.468" width="42.0861" height="41.9546" fill="#FB95D2"/>
<rect x="889.004" y="440.742" width="42.0861" height="41.9546" fill="#FB95D2"/>
<rect x="889.004" y="482.423" width="42.0861" height="41.9546" fill="#FB95D2"/>
<rect x="847.191" y="524.104" width="42.0861" height="41.9546" fill="#FB95D2"/>
<rect x="889.004" y="524.104" width="42.0861" height="41.9546" fill="#FB95D2"/>
<rect x="847.191" y="565.786" width="42.0861" height="41.9546" fill="#FB95D2"/>
<rect x="805.379" y="482.423" width="42.0861" height="41.9546" fill="#FB95D2"/>
<rect x="805.379" y="524.104" width="42.0861" height="41.9546" fill="#FB95D2"/>
<rect x="805.379" y="565.786" width="42.0861" height="41.9546" fill="#FB95D2"/>
<rect x="889.004" y="565.786" width="42.0861" height="41.9546" fill="#FB95D2"/>
<rect x="847.191" y="482.423" width="42.0861" height="41.9546" fill="#FB95D2"/>
<rect x="847.191" y="440.742" width="42.0861" height="41.9546" fill="#FB95D2"/>
<rect x="972.627" y="440.742" width="42.0861" height="41.9546" fill="#FB95D2"/>
<rect x="972.627" y="482.423" width="42.0861" height="41.9546" fill="#FB95D2"/>
<rect x="972.627" y="524.104" width="42.0861" height="41.9546" fill="#FB95D2"/>
<rect x="972.627" y="565.786" width="42.0861" height="41.9546" fill="#FB95D2"/>
<rect x="805.379" y="440.742" width="42.0861" height="41.9546" fill="#FB95D2"/>
<rect x="930.814" y="440.742" width="42.0861" height="41.9546" fill="#FB95D2"/>
<rect x="930.814" y="482.423" width="42.0861" height="41.9546" fill="#FB95D2"/>
<rect x="930.814" y="524.104" width="42.0861" height="41.9546" fill="#FB95D2"/>
<rect x="930.814" y="565.786" width="42.0861" height="41.9546" fill="#FB95D2"/>
<rect x="3.13867" y="273.142" width="42.0861" height="41.9546" fill="#E13C95"/>
<rect x="3.13867" y="565.131" width="42.0861" height="41.9546" fill="#E13C95"/>
<rect x="-39" y="314.933" width="42.0861" height="41.9546" fill="#E13C95"/>
<rect x="-39" y="523.34" width="42.0861" height="41.9546" fill="#E13C95"/>
<rect x="2.70117" y="356.614" width="42.0861" height="41.9546" fill="#E13C95"/>
<rect x="2.70117" y="398.296" width="42.0861" height="41.9546" fill="#E13C95"/>
<rect x="2.70117" y="439.977" width="42.0861" height="41.9546" fill="#E13C95"/>
<rect x="2.70117" y="481.659" width="42.0861" height="41.9546" fill="#E13C95"/>
<rect x="-39.1113" y="356.614" width="42.0861" height="41.9546" fill="#E13C95"/>
<rect x="-39.1113" y="398.296" width="42.0861" height="41.9546" fill="#E13C95"/>
<rect x="-39.1113" y="439.977" width="42.0861" height="41.9546" fill="#E13C95"/>
<rect x="-39.1113" y="481.659" width="42.0861" height="41.9546" fill="#E13C95"/>
<rect x="183.697" y="315.206" width="42.0861" height="41.9546" fill="#E13C95"/>
<rect x="183.971" y="607.194" width="42.0861" height="41.9546" fill="#E13C95"/>
<rect x="100.127" y="315.206" width="42.0861" height="41.9546" fill="#E13C95"/>
<rect x="267.812" y="315.206" width="42.0861" height="41.9546" fill="#E13C95"/>
<rect x="267.812" y="607.194" width="42.0861" height="41.9546" fill="#E13C95"/>
<rect x="100.127" y="607.194" width="42.0861" height="41.9546" fill="#E13C95"/>
<rect x="142.049" y="356.997" width="42.0861" height="41.9546" fill="#E13C95"/>
<rect x="183.861" y="356.887" width="42.0861" height="41.9546" fill="#E13C95"/>
<rect x="225.674" y="356.997" width="42.0861" height="41.9546" fill="#E13C95"/>
<rect x="142.049" y="565.404" width="42.0861" height="41.9546" fill="#E13C95"/>
<rect x="183.861" y="565.404" width="42.0861" height="41.9546" fill="#E13C95"/>
<rect x="225.674" y="565.404" width="42.0861" height="41.9546" fill="#E13C95"/>
<rect x="183.752" y="398.678" width="42.0861" height="41.9546" fill="#E13C95"/>
<rect x="183.752" y="440.359" width="42.0861" height="41.9546" fill="#E13C95"/>
<rect x="141.939" y="482.041" width="42.0861" height="41.9546" fill="#E13C95"/>
<rect x="183.752" y="482.041" width="42.0861" height="41.9546" fill="#E13C95"/>
<rect x="141.939" y="523.722" width="42.0861" height="41.9546" fill="#E13C95"/>
<rect x="100.127" y="440.359" width="42.0861" height="41.9546" fill="#E13C95"/>
<rect x="100.127" y="482.041" width="42.0861" height="41.9546" fill="#E13C95"/>
<rect x="100.127" y="523.722" width="42.0861" height="41.9546" fill="#E13C95"/>
<rect x="183.752" y="523.722" width="42.0861" height="41.9546" fill="#E13C95"/>
<rect x="141.939" y="440.359" width="42.0861" height="41.9546" fill="#E13C95"/>
<rect x="141.939" y="398.678" width="42.0861" height="41.9546" fill="#E13C95"/>
<rect x="267.375" y="398.678" width="42.0861" height="41.9546" fill="#E13C95"/>
<rect x="267.375" y="440.359" width="42.0861" height="41.9546" fill="#E13C95"/>
<rect x="267.375" y="482.041" width="42.0861" height="41.9546" fill="#E13C95"/>
<rect x="267.375" y="523.722" width="42.0861" height="41.9546" fill="#E13C95"/>
<rect x="100.127" y="398.678" width="42.0861" height="41.9546" fill="#E13C95"/>
<rect x="225.562" y="398.678" width="42.0861" height="41.9546" fill="#E13C95"/>
<rect x="225.562" y="440.359" width="42.0861" height="41.9546" fill="#E13C95"/>
<rect x="225.562" y="482.041" width="42.0861" height="41.9546" fill="#E13C95"/>
<rect x="225.562" y="523.722" width="42.0861" height="41.9546" fill="#E13C95"/>
<rect x="448.371" y="357.27" width="42.0861" height="41.9546" fill="#E13C95"/>
<rect x="448.645" y="649.258" width="42.0861" height="41.9546" fill="#E13C95"/>
<rect x="364.801" y="357.27" width="42.0861" height="41.9546" fill="#E13C95"/>
<rect x="532.486" y="357.27" width="42.0861" height="41.9546" fill="#E13C95"/>
<rect x="532.486" y="649.258" width="42.0861" height="41.9546" fill="#E13C95"/>
<rect x="364.801" y="649.258" width="42.0861" height="41.9546" fill="#E13C95"/>
<rect x="406.723" y="399.061" width="42.0861" height="41.9546" fill="#E13C95"/>
<rect x="448.535" y="398.951" width="42.0861" height="41.9546" fill="#E13C95"/>
<rect x="490.348" y="399.061" width="42.0861" height="41.9546" fill="#E13C95"/>
<rect x="406.723" y="607.468" width="42.0861" height="41.9546" fill="#E13C95"/>
<rect x="448.535" y="607.468" width="42.0861" height="41.9546" fill="#E13C95"/>
<rect x="490.348" y="607.468" width="42.0861" height="41.9546" fill="#E13C95"/>
<rect x="448.426" y="440.742" width="42.0861" height="41.9546" fill="#E13C95"/>
<rect x="448.426" y="482.423" width="42.0861" height="41.9546" fill="#E13C95"/>
<rect x="406.613" y="524.104" width="42.0861" height="41.9546" fill="#E13C95"/>
<rect x="448.426" y="524.104" width="42.0861" height="41.9546" fill="#E13C95"/>
<rect x="406.613" y="565.786" width="42.0861" height="41.9546" fill="#E13C95"/>
<rect x="364.801" y="482.423" width="42.0861" height="41.9546" fill="#E13C95"/>
<rect x="364.801" y="524.104" width="42.0861" height="41.9546" fill="#E13C95"/>
<rect x="364.801" y="565.786" width="42.0861" height="41.9546" fill="#E13C95"/>
<rect x="448.426" y="565.786" width="42.0861" height="41.9546" fill="#E13C95"/>
<rect x="406.613" y="482.423" width="42.0861" height="41.9546" fill="#E13C95"/>
<rect x="406.613" y="440.742" width="42.0861" height="41.9546" fill="#E13C95"/>
<rect x="532.049" y="440.742" width="42.0861" height="41.9546" fill="#E13C95"/>
<rect x="532.049" y="482.423" width="42.0861" height="41.9546" fill="#E13C95"/>
<rect x="532.049" y="524.104" width="42.0861" height="41.9546" fill="#E13C95"/>
<rect x="532.049" y="565.786" width="42.0861" height="41.9546" fill="#E13C95"/>
<rect x="364.801" y="440.742" width="42.0861" height="41.9546" fill="#E13C95"/>
<rect x="490.236" y="440.742" width="42.0861" height="41.9546" fill="#E13C95"/>
<rect x="490.236" y="482.423" width="42.0861" height="41.9546" fill="#E13C95"/>
<rect x="490.236" y="524.104" width="42.0861" height="41.9546" fill="#E13C95"/>
<rect x="490.236" y="565.786" width="42.0861" height="41.9546" fill="#E13C95"/>
<rect width="42.0861" height="41.9546" transform="matrix(1 0 0 -1 1241.3 566.387)" fill="#E13C95"/>
<rect width="42.0861" height="41.9546" transform="matrix(1 0 0 -1 1241.57 274.398)" fill="#E13C95"/>
<rect width="42.0861" height="41.9546" transform="matrix(1 0 0 -1 1157.73 566.387)" fill="#E13C95"/>
<rect width="42.0861" height="41.9546" transform="matrix(1 0 0 -1 1325.41 566.387)" fill="#E13C95"/>
<rect width="42.0861" height="41.9546" transform="matrix(1 0 0 -1 1325.41 274.398)" fill="#E13C95"/>
<rect width="42.0861" height="41.9546" transform="matrix(1 0 0 -1 1157.73 274.398)" fill="#E13C95"/>
<rect width="42.0861" height="41.9546" transform="matrix(1 0 0 -1 1199.65 524.596)" fill="#E13C95"/>
<rect width="42.0861" height="41.9546" transform="matrix(1 0 0 -1 1241.46 524.706)" fill="#E13C95"/>
<rect width="42.0861" height="41.9546" transform="matrix(1 0 0 -1 1283.28 524.596)" fill="#E13C95"/>
<rect width="42.0861" height="41.9546" transform="matrix(1 0 0 -1 1199.65 316.188)" fill="#E13C95"/>
<rect width="42.0861" height="41.9546" transform="matrix(1 0 0 -1 1241.46 316.188)" fill="#E13C95"/>
<rect width="42.0861" height="41.9546" transform="matrix(1 0 0 -1 1283.28 316.188)" fill="#E13C95"/>
<rect width="42.0861" height="41.9546" transform="matrix(1 0 0 -1 1241.35 482.915)" fill="#E13C95"/>
<rect width="42.0861" height="41.9546" transform="matrix(1 0 0 -1 1241.35 441.233)" fill="#E13C95"/>
<rect width="42.0861" height="41.9546" transform="matrix(1 0 0 -1 1199.54 399.552)" fill="#E13C95"/>
<rect width="42.0861" height="41.9546" transform="matrix(1 0 0 -1 1241.35 399.552)" fill="#E13C95"/>
<rect width="42.0861" height="41.9546" transform="matrix(1 0 0 -1 1199.54 357.87)" fill="#E13C95"/>
<rect width="42.0861" height="41.9546" transform="matrix(1 0 0 -1 1157.73 441.233)" fill="#E13C95"/>
<rect width="42.0861" height="41.9546" transform="matrix(1 0 0 -1 1157.73 399.552)" fill="#E13C95"/>
<rect width="42.0861" height="41.9546" transform="matrix(1 0 0 -1 1157.73 357.87)" fill="#E13C95"/>
<rect width="42.0861" height="41.9546" transform="matrix(1 0 0 -1 1241.35 357.87)" fill="#E13C95"/>
<rect width="42.0861" height="41.9546" transform="matrix(1 0 0 -1 1199.54 441.233)" fill="#E13C95"/>
<rect width="42.0861" height="41.9546" transform="matrix(1 0 0 -1 1199.54 482.915)" fill="#E13C95"/>
<rect width="42.0861" height="41.9546" transform="matrix(1 0 0 -1 1324.98 482.915)" fill="#E13C95"/>
<rect width="42.0861" height="41.9546" transform="matrix(1 0 0 -1 1324.98 441.233)" fill="#E13C95"/>
<rect width="42.0861" height="41.9546" transform="matrix(1 0 0 -1 1324.98 399.552)" fill="#E13C95"/>
<rect width="42.0861" height="41.9546" transform="matrix(1 0 0 -1 1324.98 357.87)" fill="#E13C95"/>
<rect width="42.0861" height="41.9546" transform="matrix(1 0 0 -1 1157.73 482.915)" fill="#E13C95"/>
<rect width="42.0861" height="41.9546" transform="matrix(1 0 0 -1 1283.16 482.915)" fill="#E13C95"/>
<rect width="42.0861" height="41.9546" transform="matrix(1 0 0 -1 1283.16 441.233)" fill="#E13C95"/>
<rect width="42.0861" height="41.9546" transform="matrix(1 0 0 -1 1283.16 399.552)" fill="#E13C95"/>
<rect width="42.0861" height="41.9546" transform="matrix(1 0 0 -1 1283.16 357.87)" fill="#E13C95"/>
<rect width="42.0861" height="41.9546" transform="matrix(1 0 0 -1 1505.43 522.684)" fill="#E13C95"/>
<rect width="42.0861" height="41.9546" transform="matrix(1 0 0 -1 1505.7 230.695)" fill="#E13C95"/>
<rect width="42.0861" height="41.9546" transform="matrix(1 0 0 -1 1421.86 522.684)" fill="#E13C95"/>
<rect width="42.0861" height="41.9546" transform="matrix(1 0 0 -1 1589.54 522.684)" fill="#E13C95"/>
<rect width="42.0861" height="41.9546" transform="matrix(1 0 0 -1 1589.54 230.695)" fill="#E13C95"/>
<rect width="42.0861" height="41.9546" transform="matrix(1 0 0 -1 1421.86 230.695)" fill="#E13C95"/>
<rect width="42.0861" height="41.9546" transform="matrix(1 0 0 -1 1463.78 480.894)" fill="#E13C95"/>
<rect width="42.0861" height="41.9546" transform="matrix(1 0 0 -1 1505.59 481.003)" fill="#E13C95"/>
<rect width="42.0861" height="41.9546" transform="matrix(1 0 0 -1 1547.4 480.894)" fill="#E13C95"/>
<rect width="42.0861" height="41.9546" transform="matrix(1 0 0 -1 1463.78 272.486)" fill="#E13C95"/>
<rect width="42.0861" height="41.9546" transform="matrix(1 0 0 -1 1505.59 272.486)" fill="#E13C95"/>
<rect width="42.0861" height="41.9546" transform="matrix(1 0 0 -1 1547.4 272.486)" fill="#E13C95"/>
<rect width="42.0861" height="41.9546" transform="matrix(1 0 0 -1 1505.48 439.212)" fill="#E13C95"/>
<rect width="42.0861" height="41.9546" transform="matrix(1 0 0 -1 1505.48 397.531)" fill="#E13C95"/>
<rect width="42.0861" height="41.9546" transform="matrix(1 0 0 -1 1463.67 355.849)" fill="#E13C95"/>
<rect width="42.0861" height="41.9546" transform="matrix(1 0 0 -1 1505.48 355.849)" fill="#E13C95"/>
<rect width="42.0861" height="41.9546" transform="matrix(1 0 0 -1 1463.67 314.167)" fill="#E13C95"/>
<rect width="42.0861" height="41.9546" transform="matrix(1 0 0 -1 1421.86 397.531)" fill="#E13C95"/>
<rect width="42.0861" height="41.9546" transform="matrix(1 0 0 -1 1421.86 355.849)" fill="#E13C95"/>
<rect width="42.0861" height="41.9546" transform="matrix(1 0 0 -1 1421.86 314.167)" fill="#E13C95"/>
<rect width="42.0861" height="41.9546" transform="matrix(1 0 0 -1 1505.48 314.167)" fill="#E13C95"/>
<rect width="42.0861" height="41.9546" transform="matrix(1 0 0 -1 1463.67 397.531)" fill="#E13C95"/>
<rect width="42.0861" height="41.9546" transform="matrix(1 0 0 -1 1463.67 439.212)" fill="#E13C95"/>
<rect width="42.0861" height="41.9546" transform="matrix(1 0 0 -1 1589.11 439.212)" fill="#E13C95"/>
<rect width="42.0861" height="41.9546" transform="matrix(1 0 0 -1 1589.11 397.531)" fill="#E13C95"/>
<rect width="42.0861" height="41.9546" transform="matrix(1 0 0 -1 1589.11 355.849)" fill="#E13C95"/>
<rect width="42.0861" height="41.9546" transform="matrix(1 0 0 -1 1589.11 314.167)" fill="#E13C95"/>
<rect width="42.0861" height="41.9546" transform="matrix(1 0 0 -1 1421.86 439.212)" fill="#E13C95"/>
<rect width="42.0861" height="41.9546" transform="matrix(1 0 0 -1 1547.29 439.212)" fill="#E13C95"/>
<rect width="42.0861" height="41.9546" transform="matrix(1 0 0 -1 1547.29 397.531)" fill="#E13C95"/>
<rect width="42.0861" height="41.9546" transform="matrix(1 0 0 -1 1547.29 355.849)" fill="#E13C95"/>
<rect width="42.0861" height="41.9546" transform="matrix(1 0 0 -1 1547.29 314.167)" fill="#E13C95"/>
<rect width="42.0861" height="41.9546" transform="matrix(1 0 0 -1 1769.56 480.62)" fill="#E13C95"/>
<rect width="42.0861" height="41.9546" transform="matrix(1 0 0 -1 1769.83 188.631)" fill="#E13C95"/>
<rect width="42.0861" height="41.9546" transform="matrix(1 0 0 -1 1685.99 480.62)" fill="#E13C95"/>
<rect width="42.0861" height="41.9546" transform="matrix(1 0 0 -1 1853.67 480.62)" fill="#E13C95"/>
<rect width="42.0861" height="41.9546" transform="matrix(1 0 0 -1 1853.67 188.631)" fill="#E13C95"/>
<rect width="42.0861" height="41.9546" transform="matrix(1 0 0 -1 1685.99 188.631)" fill="#E13C95"/>
<rect width="42.0861" height="41.9546" transform="matrix(1 0 0 -1 1727.91 438.829)" fill="#E13C95"/>
<rect width="42.0861" height="41.9546" transform="matrix(1 0 0 -1 1769.72 438.938)" fill="#E13C95"/>
<rect width="42.0861" height="41.9546" transform="matrix(1 0 0 -1 1811.53 438.829)" fill="#E13C95"/>
<rect width="42.0861" height="41.9546" transform="matrix(1 0 0 -1 1727.91 230.422)" fill="#E13C95"/>
<rect width="42.0861" height="41.9546" transform="matrix(1 0 0 -1 1769.72 230.422)" fill="#E13C95"/>
<rect width="42.0861" height="41.9546" transform="matrix(1 0 0 -1 1811.53 230.422)" fill="#E13C95"/>
<rect width="42.0861" height="41.9546" transform="matrix(1 0 0 -1 1769.61 397.148)" fill="#E13C95"/>
<rect width="42.0861" height="41.9546" transform="matrix(1 0 0 -1 1769.61 355.466)" fill="#E13C95"/>
<rect width="42.0861" height="41.9546" transform="matrix(1 0 0 -1 1727.8 313.785)" fill="#E13C95"/>
<rect width="42.0861" height="41.9546" transform="matrix(1 0 0 -1 1769.61 313.785)" fill="#E13C95"/>
<rect width="42.0861" height="41.9546" transform="matrix(1 0 0 -1 1727.8 272.103)" fill="#E13C95"/>
<rect width="42.0861" height="41.9546" transform="matrix(1 0 0 -1 1685.99 355.466)" fill="#E13C95"/>
<rect width="42.0861" height="41.9546" transform="matrix(1 0 0 -1 1685.99 313.785)" fill="#E13C95"/>
<rect width="42.0861" height="41.9546" transform="matrix(1 0 0 -1 1685.99 272.103)" fill="#E13C95"/>
<rect width="42.0861" height="41.9546" transform="matrix(1 0 0 -1 1769.61 272.103)" fill="#E13C95"/>
<rect width="42.0861" height="41.9546" transform="matrix(1 0 0 -1 1727.8 355.466)" fill="#E13C95"/>
<rect width="42.0861" height="41.9546" transform="matrix(1 0 0 -1 1727.8 397.148)" fill="#E13C95"/>
<rect width="42.0861" height="41.9546" transform="matrix(1 0 0 -1 1853.23 397.148)" fill="#E13C95"/>
<rect width="42.0861" height="41.9546" transform="matrix(1 0 0 -1 1853.23 355.466)" fill="#E13C95"/>
<rect width="42.0861" height="41.9546" transform="matrix(1 0 0 -1 1853.23 313.785)" fill="#E13C95"/>
<rect width="42.0861" height="41.9546" transform="matrix(1 0 0 -1 1853.23 272.103)" fill="#E13C95"/>
<rect width="42.0861" height="41.9546" transform="matrix(1 0 0 -1 1685.99 397.148)" fill="#E13C95"/>
<rect width="42.0861" height="41.9546" transform="matrix(1 0 0 -1 1811.42 397.148)" fill="#E13C95"/>
<rect width="42.0861" height="41.9546" transform="matrix(1 0 0 -1 1811.42 355.466)" fill="#E13C95"/>
<rect width="42.0861" height="41.9546" transform="matrix(1 0 0 -1 1811.42 313.785)" fill="#E13C95"/>
<rect width="42.0861" height="41.9546" transform="matrix(1 0 0 -1 1811.42 272.103)" fill="#E13C95"/>
<rect x="713.043" y="399.333" width="42.0861" height="41.9546" fill="#E13C95"/>
<rect x="713.316" y="691.322" width="42.0861" height="41.9546" fill="#E13C95"/>
<rect x="629.473" y="399.333" width="42.0861" height="41.9546" fill="#E13C95"/>
<rect x="797.158" y="399.333" width="42.0861" height="41.9546" fill="#E13C95"/>
<rect x="797.158" y="691.322" width="42.0861" height="41.9546" fill="#E13C95"/>
<rect x="629.473" y="691.322" width="42.0861" height="41.9546" fill="#E13C95"/>
<rect x="671.395" y="441.124" width="42.0861" height="41.9546" fill="#E13C95"/>
<rect x="713.207" y="441.015" width="42.0861" height="41.9546" fill="#E13C95"/>
<rect x="755.02" y="441.124" width="42.0861" height="41.9546" fill="#E13C95"/>
<rect x="671.395" y="649.531" width="42.0861" height="41.9546" fill="#E13C95"/>
<rect x="713.207" y="649.531" width="42.0861" height="41.9546" fill="#E13C95"/>
<rect x="755.02" y="649.531" width="42.0861" height="41.9546" fill="#E13C95"/>
<rect x="713.098" y="482.805" width="42.0861" height="41.9546" fill="#E13C95"/>
<rect x="713.098" y="524.487" width="42.0861" height="41.9546" fill="#E13C95"/>
<rect x="671.285" y="566.168" width="42.0861" height="41.9546" fill="#E13C95"/>
<rect x="713.098" y="566.168" width="42.0861" height="41.9546" fill="#E13C95"/>
<rect x="671.285" y="607.85" width="42.0861" height="41.9546" fill="#E13C95"/>
<rect x="629.473" y="524.487" width="42.0861" height="41.9546" fill="#E13C95"/>
<rect x="629.473" y="566.168" width="42.0861" height="41.9546" fill="#E13C95"/>
<rect x="629.473" y="607.85" width="42.0861" height="41.9546" fill="#E13C95"/>
<rect x="713.098" y="607.85" width="42.0861" height="41.9546" fill="#E13C95"/>
<rect x="671.285" y="524.487" width="42.0861" height="41.9546" fill="#E13C95"/>
<rect x="671.285" y="482.805" width="42.0861" height="41.9546" fill="#E13C95"/>
<rect x="796.721" y="482.805" width="42.0861" height="41.9546" fill="#E13C95"/>
<rect x="796.721" y="524.487" width="42.0861" height="41.9546" fill="#E13C95"/>
<rect x="796.721" y="566.168" width="42.0861" height="41.9546" fill="#E13C95"/>
<rect x="796.721" y="607.85" width="42.0861" height="41.9546" fill="#E13C95"/>
<rect x="629.473" y="482.805" width="42.0861" height="41.9546" fill="#E13C95"/>
<rect x="754.908" y="482.805" width="42.0861" height="41.9546" fill="#E13C95"/>
<rect x="754.908" y="524.487" width="42.0861" height="41.9546" fill="#E13C95"/>
<rect x="754.908" y="566.168" width="42.0861" height="41.9546" fill="#E13C95"/>
<rect x="754.908" y="607.85" width="42.0861" height="41.9546" fill="#E13C95"/>
<rect x="977.172" y="441.124" width="42.0861" height="41.9546" fill="#E13C95"/>
<rect x="977.445" y="733.113" width="42.0861" height="41.9546" fill="#E13C95"/>
<rect x="893.602" y="441.124" width="42.0861" height="41.9546" fill="#E13C95"/>
<rect x="1061.29" y="441.124" width="42.0861" height="41.9546" fill="#E13C95"/>
<rect x="1061.29" y="733.113" width="42.0861" height="41.9546" fill="#E13C95"/>
<rect x="893.602" y="733.113" width="42.0861" height="41.9546" fill="#E13C95"/>
<rect x="935.523" y="482.915" width="42.0861" height="41.9546" fill="#E13C95"/>
<rect x="977.336" y="482.806" width="42.0861" height="41.9546" fill="#E13C95"/>
<rect x="1019.15" y="482.915" width="42.0861" height="41.9546" fill="#E13C95"/>
<rect x="935.523" y="691.322" width="42.0861" height="41.9546" fill="#E13C95"/>
<rect x="977.336" y="691.322" width="42.0861" height="41.9546" fill="#E13C95"/>
<rect x="1019.15" y="691.322" width="42.0861" height="41.9546" fill="#E13C95"/>
<rect x="977.227" y="524.596" width="42.0861" height="41.9546" fill="#E13C95"/>
<rect x="977.227" y="566.278" width="42.0861" height="41.9546" fill="#E13C95"/>
<rect x="935.414" y="607.959" width="42.0861" height="41.9546" fill="#E13C95"/>
<rect x="977.227" y="607.959" width="42.0861" height="41.9546" fill="#E13C95"/>
<rect x="935.414" y="649.641" width="42.0861" height="41.9546" fill="#E13C95"/>
<rect x="893.602" y="566.278" width="42.0861" height="41.9546" fill="#E13C95"/>
<rect x="893.602" y="607.959" width="42.0861" height="41.9546" fill="#E13C95"/>
<rect x="893.602" y="649.641" width="42.0861" height="41.9546" fill="#E13C95"/>
<rect x="977.227" y="649.641" width="42.0861" height="41.9546" fill="#E13C95"/>
<rect x="935.414" y="566.278" width="42.0861" height="41.9546" fill="#E13C95"/>
<rect x="935.414" y="524.596" width="42.0861" height="41.9546" fill="#E13C95"/>
<rect x="1060.85" y="524.596" width="42.0861" height="41.9546" fill="#E13C95"/>
<rect x="1060.85" y="566.278" width="42.0861" height="41.9546" fill="#E13C95"/>
<rect x="1060.85" y="607.959" width="42.0861" height="41.9546" fill="#E13C95"/>
<rect x="1060.85" y="649.641" width="42.0861" height="41.9546" fill="#E13C95"/>
<rect x="893.602" y="524.596" width="42.0861" height="41.9546" fill="#E13C95"/>
<rect x="1019.04" y="524.596" width="42.0861" height="41.9546" fill="#E13C95"/>
<rect x="1019.04" y="566.278" width="42.0861" height="41.9546" fill="#E13C95"/>
<rect x="1019.04" y="607.959" width="42.0861" height="41.9546" fill="#E13C95"/>
<rect x="1019.04" y="649.641" width="42.0861" height="41.9546" fill="#E13C95"/>
</svg>
